<svg width="49" height="54" viewBox="0 0 49 54" fill="none" xmlns="http://www.w3.org/2000/svg">
<path d="M38.3321 9.85693C39.6876 9.85696 40.75 10.9434 40.75 12.3296V41.67C40.75 43.0564 39.6881 44.1426 38.3321 44.1426H14.3122C12.9565 44.1426 11.894 43.0564 11.894 41.67V39.6926H9.95911C9.29132 39.6926 8.75002 39.1391 8.75 38.4564C8.75 37.7734 9.29131 37.2199 9.95911 37.2199H11.894V33.9646H9.95911C9.29131 33.9646 8.75 33.411 8.75 32.7282C8.75004 32.0454 9.29134 31.492 9.95911 31.492H11.894V28.2365H9.95911C9.29131 28.2365 8.75 27.6829 8.75 27.0001C8.75007 26.3173 9.29135 25.7639 9.95911 25.7639H11.894V22.5084H9.95911C9.29132 22.5084 8.75001 21.9551 8.75 21.2722C8.75 20.5894 9.29131 20.0358 9.95911 20.0358H11.894V16.7806H9.95911C9.29131 16.7806 8.75 16.2269 8.75 15.5441C8.75005 14.8613 9.29134 14.3079 9.95911 14.3079H11.894V12.3296C11.894 10.9433 12.9565 9.85693 14.3122 9.85693H38.3321ZM14.2935 12.3312L14.2953 15.3429C14.3058 15.4084 14.3117 15.4756 14.3117 15.5441C14.3117 15.6121 14.3059 15.6787 14.2956 15.7437L14.299 21.095C14.3071 21.1529 14.3117 21.212 14.3117 21.2722C14.3117 21.3316 14.3071 21.3899 14.2992 21.4471L14.3026 26.8523C14.3083 26.9008 14.3117 26.95 14.3117 27.0001C14.3117 27.0495 14.3084 27.0983 14.3029 27.1462L14.3062 32.6149C14.3096 32.6523 14.3117 32.69 14.3117 32.7282C14.3117 32.7657 14.3097 32.8028 14.3065 32.8395L14.3099 38.3922C14.311 38.4134 14.3117 38.4349 14.3117 38.4564C14.3117 38.4765 14.3111 38.4967 14.3102 38.5168L14.3122 41.67H17.9792V12.3296H14.3122C14.2993 12.3296 14.2935 12.3312 14.2935 12.3312ZM25.9859 21.5935C25.0715 21.5407 24.1542 21.8729 23.4792 22.6059C22.1281 24.0759 22.2695 26.5429 23.7151 28.1145L24.1768 28.616L28.3732 33.1764C28.4575 33.2677 28.5718 33.3189 28.6909 33.3189C28.8099 33.3189 28.9243 33.2677 29.0086 33.1764L33.2031 28.616L33.6651 28.1145C35.1107 26.5429 35.2509 24.076 33.899 22.607C32.5479 21.138 30.2806 21.2944 28.8359 22.865L28.6901 23.0234L28.5443 22.865C27.8215 22.0782 26.9014 21.6463 25.9859 21.5935Z" fill="#BC8035"/>
</svg>
