<svg width="33" height="54" viewBox="0 0 33 54" fill="none" xmlns="http://www.w3.org/2000/svg">
<g clip-path="url(#clip0_3007_13855)">
<g clip-path="url(#clip1_3007_13855)">
<path d="M28.0149 33.6096C28.0149 33.6096 27.9849 33.6096 27.9749 33.6096C27.4449 33.6096 26.9949 33.1896 26.9749 32.6496C26.9549 32.0996 27.3849 31.6296 27.9349 31.6096C29.6649 31.5296 31.1949 31.8896 32.3949 32.3396C32.6249 31.4296 32.7449 30.4896 32.7449 29.5496C31.6449 29.5196 30.2349 29.6496 28.7849 30.2396C28.6649 30.2896 28.5349 30.3196 28.4049 30.3196C28.0149 30.3196 27.6349 30.0896 27.4849 29.6996C27.2749 29.1896 27.5149 28.6096 28.0249 28.3896C29.6749 27.7096 31.2749 27.5296 32.5749 27.5396C32.3849 26.3696 32.0149 25.2096 31.4749 24.0796C32.0849 21.5296 32.2549 18.8296 31.9649 16.2496C31.6349 13.3896 30.7549 11.8496 29.3549 11.6596C29.2349 11.6596 29.1149 11.6396 28.9749 11.6396C27.2549 11.6396 25.1049 13.0296 23.5949 14.1996C22.9349 14.7196 22.2549 15.3796 21.6549 15.9696L21.5549 16.0596C19.9249 15.5996 18.2349 15.3596 16.5549 15.3596C15.9949 15.3596 15.4349 15.3896 14.8849 15.4396C13.9049 15.5296 12.9049 15.7196 11.8949 15.9996C11.3349 15.4696 10.6349 14.7996 9.85488 14.1996C8.35488 13.0296 6.19488 11.6396 4.47488 11.6396C4.34488 11.6396 4.21488 11.6496 4.09488 11.6596C1.99488 11.9396 1.61488 15.1896 1.49488 16.2496C1.19488 18.8196 1.36488 21.5396 1.98488 24.1096C1.45488 25.2196 1.10488 26.3696 0.914883 27.5496C2.23488 27.5196 3.89488 27.6796 5.62488 28.3896C6.13488 28.5996 6.37488 29.1796 6.16488 29.6996C6.00488 30.0896 5.63488 30.3196 5.23488 30.3196C5.10488 30.3196 4.97488 30.2996 4.85488 30.2396C3.35488 29.6196 1.87488 29.5096 0.754883 29.5496C0.754883 29.9896 0.774883 30.4296 0.824883 30.8596C0.884883 31.3796 0.994883 31.8796 1.11488 32.3896C2.32488 31.9196 3.90488 31.5396 5.70488 31.6096C6.25488 31.6296 6.68488 32.0996 6.66488 32.6496C6.64488 33.1996 6.17488 33.6696 5.62488 33.6096C4.11488 33.5496 2.78488 33.8996 1.76488 34.2896C2.51488 35.9796 3.66488 37.4996 5.13488 38.7396C7.86488 41.0396 12.0849 42.3496 16.7249 42.3496C21.9349 42.3496 26.6549 40.6596 29.3449 37.8196C30.3749 36.7396 31.1649 35.5296 31.7349 34.2496C30.7349 33.8796 29.4449 33.5596 28.0149 33.6096ZM5.37488 14.8396C4.25488 14.8396 3.99488 15.9696 3.83488 17.0296C3.65488 18.3396 3.64488 19.7396 3.81488 21.1996C3.59488 21.4996 3.40488 21.7696 3.21488 22.0196C3.21488 21.9296 3.18488 21.8396 3.17488 21.7396C3.14488 21.5396 3.11488 21.3396 3.09488 21.1496C2.91488 19.4296 2.96488 17.5196 3.23488 15.7696C3.56488 13.6096 4.10488 13.2796 4.31488 13.2396C4.37488 13.2296 4.44488 13.2196 4.50488 13.2196C5.18488 13.2196 6.19488 13.7796 6.61488 14.0196C7.72488 14.6396 8.84488 15.4696 10.0949 16.6196L9.21488 17.0296L9.19488 16.9996C8.43488 16.2096 7.50488 15.5396 6.71488 15.1896C6.18488 14.9496 5.74488 14.8396 5.38488 14.8396H5.37488ZM13.7749 31.0496C13.1149 31.8396 12.1649 32.2896 11.1649 32.2896C10.0749 32.2896 9.10488 31.7696 8.49488 30.8696C8.27488 30.5396 8.00488 29.8496 8.21488 29.3796C8.28488 29.2196 8.43488 29.0096 8.77488 28.9596C8.84488 28.9396 8.91488 28.9396 8.98488 28.9396C9.54488 28.9396 9.68488 29.3796 9.77488 29.6696C9.80488 29.7596 9.83488 29.8596 9.86488 29.9296C10.1049 30.3996 10.6349 30.6896 11.2349 30.6896C11.8349 30.6896 12.3049 30.4196 12.5449 29.9896C12.5849 29.9096 12.6249 29.8096 12.6549 29.6996C12.7649 29.3996 12.9149 28.9396 13.4649 28.9396C13.5349 28.9396 13.6049 28.9396 13.6849 28.9596C14.0449 29.0396 14.1949 29.2596 14.2649 29.4296C14.4549 29.9697 14.0149 30.7596 13.7749 31.0496ZM16.7449 38.1996C15.9349 38.1996 15.2849 37.3796 15.2849 36.3596C15.2849 35.3396 15.9349 34.5196 16.7449 34.5196C17.5549 34.5196 18.2049 35.3396 18.2049 36.3596C18.2049 37.3796 17.5449 38.1996 16.7449 38.1996ZM17.9949 32.9796C17.8049 33.1196 17.4049 33.3296 17.4049 33.3296C16.5849 33.4796 16.2049 33.2696 16.2049 33.2696C16.2049 33.2696 15.7149 33.0396 15.5449 32.8696C14.9749 32.3096 14.8249 31.1596 15.7849 30.9096C16.2949 30.7796 17.7649 30.7696 18.2049 31.0496C18.9049 31.4996 18.5449 32.5596 17.9949 32.9796ZM25.3649 30.3396C24.9649 31.5096 23.8049 32.2696 22.4149 32.2696C21.0249 32.2696 19.8349 31.5196 19.4049 30.3496C19.2849 30.0596 19.2249 29.6196 19.4049 29.3096C19.5049 29.1296 19.6749 29.0096 19.8949 28.9596C19.9749 28.9396 20.0649 28.9296 20.1349 28.9296C20.6749 28.9296 20.8549 29.3796 20.9749 29.7196C21.0449 29.8796 21.1049 30.0496 21.2049 30.1696C21.4849 30.4996 21.9149 30.6896 22.3749 30.6896C22.9449 30.6896 23.4449 30.4196 23.7149 29.9596C23.7549 29.8796 23.7949 29.7796 23.8349 29.6696C23.9449 29.3796 24.1049 28.9296 24.6349 28.9296C24.7049 28.9296 24.7849 28.9396 24.8649 28.9596C25.0749 29.0096 25.2449 29.1296 25.3549 29.3096C25.5249 29.6296 25.4749 30.0496 25.3749 30.3396H25.3649ZM24.2749 16.9896C24.2749 16.9896 24.2449 17.0096 24.2449 17.0296L23.3549 16.6196C24.6149 15.4696 25.7249 14.6396 26.8349 14.0196C27.2949 13.7596 28.2649 13.2196 28.9449 13.2196C29.0149 13.2196 29.0749 13.2196 29.1349 13.2396C29.5849 13.3296 29.9949 14.2696 30.2149 15.7696C30.4849 17.5196 30.5349 19.4296 30.3649 21.1496C30.3449 21.3396 30.3149 21.5296 30.2849 21.7296C30.2649 21.8096 30.2549 21.8996 30.2449 21.9796C30.1949 21.9296 30.1549 21.8696 30.1149 21.8096C30.0049 21.6696 29.9049 21.5396 29.8049 21.4296L29.6349 21.1996C29.8149 19.7296 29.8049 18.3296 29.6149 17.0296C29.4649 15.9696 29.2049 14.8396 28.0749 14.8396C27.7149 14.8396 27.2849 14.9496 26.7449 15.1896C25.9649 15.5396 25.0349 16.2096 24.2749 16.9896Z" fill="#BC8035"/>
</g>
</g>
<defs>
<clipPath id="clip0_3007_13855">
<rect width="31.99" height="54" fill="white" transform="translate(0.754883)"/>
</clipPath>
<clipPath id="clip1_3007_13855">
<rect width="31.99" height="30.72" fill="white" transform="translate(0.754883 11.6396)"/>
</clipPath>
</defs>
</svg>
