<svg width="33" height="54" viewBox="0 0 33 54" fill="none" xmlns="http://www.w3.org/2000/svg">
<g clip-path="url(#clip0_3007_13791)">
<g clip-path="url(#clip1_3007_13791)">
<path d="M27.4349 31.6201C29.1649 31.5401 30.6949 31.9001 31.8949 32.3501C32.1249 31.4401 32.2449 30.5001 32.2449 29.5601C31.1449 29.5301 29.7349 29.6601 28.2849 30.2501C28.1649 30.3001 28.0349 30.3301 27.9049 30.3301C27.5149 30.3301 27.1349 30.1001 26.9849 29.7101C26.7749 29.2001 27.0149 28.6201 27.5249 28.4001C29.1749 27.7201 30.7749 27.5401 32.0749 27.5501C31.8849 26.3801 31.5149 25.2201 30.9749 24.0901C31.5849 21.5401 31.7549 18.8401 31.4649 16.2601C31.1349 13.3901 30.2549 11.8501 28.8549 11.6601C28.7349 11.6601 28.6149 11.6401 28.4749 11.6401C26.7549 11.6401 24.6049 13.0301 23.0949 14.2001C22.4349 14.7201 21.7549 15.3801 21.1549 15.9701L21.0549 16.0601C19.4249 15.6001 17.7349 15.3601 16.0549 15.3601C15.4949 15.3601 14.9349 15.3901 14.3849 15.4401C13.4049 15.5301 12.4049 15.7201 11.3949 16.0001C10.8349 15.4701 10.1349 14.8001 9.35488 14.2001C7.85488 13.0301 5.69488 11.6401 3.97488 11.6401C3.84488 11.6401 3.71488 11.6501 3.59488 11.6601C1.49488 11.9401 1.11488 15.1901 0.994883 16.2501C0.694883 18.8201 0.864883 21.5401 1.48488 24.1101C0.954883 25.2201 0.604883 26.3701 0.414883 27.5501C1.73488 27.5201 3.39488 27.6801 5.12488 28.3901C5.63488 28.6001 5.87488 29.1801 5.66488 29.7001C5.50488 30.0901 5.13488 30.3201 4.73488 30.3201C4.60488 30.3201 4.47488 30.3001 4.35488 30.2401C2.85488 29.6201 1.37488 29.5101 0.254883 29.5501C0.254883 29.9901 0.274883 30.4301 0.324883 30.8601C0.384883 31.3801 0.494883 31.8801 0.614883 32.3901C1.82488 31.9201 3.40488 31.5401 5.20488 31.6101C5.75488 31.6301 6.18488 32.1001 6.16488 32.6501C6.14488 33.2001 5.67488 33.6701 5.12488 33.6101C3.61488 33.5501 2.28488 33.9001 1.26488 34.2901C2.01488 35.9801 3.16488 37.5001 4.63488 38.7401C7.36488 41.0401 11.5849 42.3501 16.2249 42.3501C21.4349 42.3501 26.1549 40.6601 28.8449 37.8201C29.8749 36.7401 30.6649 35.5301 31.2349 34.2501C30.2349 33.8801 28.9449 33.5601 27.5149 33.6101C27.5049 33.6101 27.4849 33.6101 27.4749 33.6101C26.9449 33.6101 26.4949 33.1901 26.4749 32.6501C26.4549 32.1001 26.8849 31.6301 27.4349 31.6101V31.6201ZM6.20488 15.1901C5.67488 14.9501 5.23488 14.8401 4.87488 14.8401C3.75488 14.8401 3.49488 15.9701 3.33488 17.0301C3.15488 18.3401 3.14488 19.7401 3.31488 21.2001C3.09488 21.5001 2.90488 21.7701 2.71488 22.0201C2.71488 21.9301 2.68488 21.8401 2.67488 21.7401C2.64488 21.5401 2.61488 21.3401 2.59488 21.1501C2.41488 19.4301 2.46488 17.5201 2.73488 15.7701C3.06488 13.6101 3.60488 13.2801 3.81488 13.2401C3.87488 13.2301 3.94488 13.2201 4.00488 13.2201C4.68488 13.2201 5.69488 13.7801 6.11488 14.0201C7.22488 14.6401 8.34488 15.4701 9.59488 16.6201L8.71488 17.0301L8.69488 17.0001C7.93488 16.2101 7.00488 15.5401 6.21488 15.1901H6.20488ZM10.4049 31.6601C9.46488 31.6601 8.69488 30.7201 8.69488 29.5801C8.69488 28.4401 9.46488 27.5001 10.4049 27.5001C11.3449 27.5001 12.1149 28.4401 12.1149 29.5801C12.1149 30.7201 11.3449 31.6601 10.4049 31.6601ZM19.5349 34.4501C18.5249 35.2601 17.1249 35.1101 16.2649 34.1701C16.0149 34.3301 15.8349 34.5601 15.5649 34.7001C14.5149 35.2501 13.1249 34.9301 12.5049 33.9301C12.2449 33.5101 12.1149 32.8201 12.7549 32.7101C13.3549 32.6001 13.3949 33.1701 13.6549 33.4801C14.1649 34.0701 15.1149 33.8801 15.4649 33.2201C15.5549 33.0501 15.7649 32.5001 15.6349 32.3601C15.5549 32.2801 15.1449 32.1301 14.9749 31.9601C14.4049 31.4001 14.2549 30.2501 15.2149 30.0001C15.7249 29.8701 17.1949 29.8601 17.6349 30.1401C18.3349 30.5901 17.9749 31.6501 17.4249 32.0701C17.2349 32.2101 17.0049 32.2601 16.8349 32.4201C16.7949 33.4201 18.0249 34.3601 18.8349 33.5101C19.1249 33.2101 19.2349 32.3601 19.9749 32.8001C20.6049 33.1801 19.9449 34.1301 19.5449 34.4601L19.5349 34.4501ZM22.0849 31.6601C21.1449 31.6601 20.3749 30.7201 20.3749 29.5801C20.3749 28.4401 21.1449 27.5001 22.0849 27.5001C23.0249 27.5001 23.7949 28.4401 23.7949 29.5801C23.7949 30.7201 23.0249 31.6601 22.0849 31.6601ZM26.2449 15.1901C25.4649 15.5401 24.5349 16.2101 23.7749 16.9901C23.7549 17.0001 23.7449 17.0101 23.7449 17.0301L22.8549 16.6201C24.1149 15.4701 25.2249 14.6401 26.3349 14.0201C26.7949 13.7601 27.7649 13.2201 28.4449 13.2201C28.5149 13.2201 28.5749 13.2201 28.6349 13.2401C29.0849 13.3301 29.4949 14.2701 29.7149 15.7701C29.9849 17.5201 30.0349 19.4301 29.8649 21.1501C29.8449 21.3401 29.8149 21.5301 29.7849 21.7301C29.7649 21.8101 29.7549 21.9001 29.7449 21.9801C29.6949 21.9301 29.6549 21.8701 29.6149 21.8101C29.5049 21.6701 29.4049 21.5401 29.3049 21.4301L29.1349 21.2001C29.3149 19.7301 29.3049 18.3301 29.1149 17.0301C28.9649 15.9701 28.7049 14.8401 27.5749 14.8401C27.2149 14.8401 26.7849 14.9501 26.2449 15.1901Z" fill="#BC8035"/>
</g>
</g>
<defs>
<clipPath id="clip0_3007_13791">
<rect width="31.99" height="54" fill="white" transform="translate(0.254883)"/>
</clipPath>
<clipPath id="clip1_3007_13791">
<rect width="31.99" height="30.72" fill="white" transform="translate(0.254883 11.6401)"/>
</clipPath>
</defs>
</svg>
