<svg width="24" height="24" viewBox="0 0 24 24" fill="none" xmlns="http://www.w3.org/2000/svg">
<path d="M20.8965 2C21.5058 2.00017 21.9998 2.49408 22 3.10352V20.8965C21.9999 21.5059 21.5058 21.9998 20.8965 22H15.7998V14.2549H18.3994L18.7891 11.2363H15.7998V9.30957C15.7998 8.43566 16.0427 7.83984 17.2959 7.83984L18.8936 7.83887V5.13965C18.6166 5.10283 17.6678 5.02051 16.5645 5.02051C14.2601 5.02066 12.6826 6.4276 12.6826 9.01074V11.2363H10.0762V14.2549H12.6826V22H3.10352C2.49397 21.9998 2.00013 21.5059 2 20.8965V3.10352C2.00017 2.49408 2.494 2.00017 3.10352 2H20.8965Z" fill="#365899"/>
</svg>
