<svg width="48" height="48" viewBox="0 0 48 48" fill="none" xmlns="http://www.w3.org/2000/svg">
<path d="M21.931 38.207H19.5862C19.0161 38.207 18.5287 38.0047 18.1241 37.6001C17.7195 37.1955 17.5172 36.7081 17.5172 36.138C17.5172 35.5679 17.7195 35.0805 18.1241 34.6759C18.5287 34.2713 19.0161 34.069 19.5862 34.069H21.931V29.1863C19.0437 28.6713 16.6667 27.2994 14.8 25.0704C12.9333 22.8418 12 20.2598 12 17.3242C12 14.0003 13.1678 11.1784 15.5034 8.85857C17.8391 6.53912 20.6713 5.37939 24 5.37939C27.3287 5.37939 30.1609 6.53912 32.4966 8.85857C34.8322 11.1784 36 14.0003 36 17.3242C36 20.2598 35.0667 22.8418 33.2 25.0704C31.3333 27.2994 28.9563 28.6713 26.069 29.1863V34.069H28.4138C28.9839 34.069 29.4713 34.2713 29.8759 34.6759C30.2805 35.0805 30.4828 35.5679 30.4828 36.138C30.4828 36.7081 30.2805 37.1955 29.8759 37.6001C29.4713 38.0047 28.9839 38.207 28.4138 38.207H26.069V40.5518C26.069 41.1219 25.8667 41.6093 25.4621 42.0139C25.0575 42.4185 24.5701 42.6208 24 42.6208C23.4299 42.6208 22.9425 42.4185 22.5379 42.0139C22.1333 41.6093 21.931 41.1219 21.931 40.5518V38.207ZM23.9983 25.2415C26.1696 25.2415 28.023 24.4742 29.5586 22.9397C31.0943 21.4048 31.8621 19.5519 31.8621 17.3811C31.8621 15.2098 31.0948 13.3564 29.5603 11.8208C28.0254 10.2851 26.1725 9.51733 24.0017 9.51733C21.8304 9.51733 19.977 10.2846 18.4414 11.8191C16.9057 13.354 16.1379 15.2069 16.1379 17.3777C16.1379 19.549 16.9052 21.4024 18.4397 22.938C19.9746 24.4736 21.8275 25.2415 23.9983 25.2415Z" fill="#BC8035"/>
</svg>
