<svg width="48" height="48" viewBox="0 0 48 48" fill="none" xmlns="http://www.w3.org/2000/svg">
<path d="M40 9.88976V17.9528C40 18.4735 39.8152 18.9186 39.4457 19.2882C39.0761 19.6577 38.631 19.8425 38.1102 19.8425C37.5895 19.8425 37.1444 19.6577 36.7748 19.2882C36.4052 18.9186 36.2205 18.4735 36.2205 17.9528V14.4756L27.9307 22.715C28.569 23.6556 29.0604 24.6578 29.4047 25.7214C29.7491 26.7851 29.9213 27.8911 29.9213 29.0394C29.9213 32.0949 28.8583 34.6856 26.7323 36.8116C24.6064 38.9372 22.0153 40 18.9591 40C15.9029 40 13.3123 38.937 11.1874 36.8111C9.06247 34.6851 8 32.0941 8 29.0379C8 25.9816 9.0628 23.3911 11.1884 21.2661C13.3144 19.1412 15.9051 18.0787 18.9606 18.0787C20.0861 18.0787 21.1864 18.2467 22.2614 18.5827C23.3365 18.9186 24.336 19.4142 25.2598 20.0693L33.5244 11.7795H30.0472C29.5265 11.7795 29.0814 11.5948 28.7118 11.2252C28.3423 10.8556 28.1575 10.4105 28.1575 9.88976C28.1575 9.36903 28.3423 8.92388 28.7118 8.55433C29.0814 8.18478 29.5265 8 30.0472 8H38.1102C38.631 8 39.0761 8.18478 39.4457 8.55433C39.8152 8.92388 40 9.36903 40 9.88976ZM18.9621 21.8583C16.979 21.8583 15.2861 22.5591 13.8835 23.9607C12.4808 25.3626 11.7795 27.055 11.7795 29.0379C11.7795 31.021 12.4803 32.7139 13.882 34.1165C15.2839 35.5192 16.9763 36.2205 18.9591 36.2205C20.9423 36.2205 22.6352 35.5197 24.0378 34.118C25.4404 32.7161 26.1417 31.0237 26.1417 29.0409C26.1417 27.0577 25.4409 25.3648 24.0393 23.9622C22.6374 22.5596 20.945 21.8583 18.9621 21.8583Z" fill="#BC8035"/>
</svg>
