<svg width="48" height="48" viewBox="0 0 48 48" fill="none" xmlns="http://www.w3.org/2000/svg">
<path d="M24 29.0001C25.6111 29.0001 26.9861 28.4306 28.125 27.2917C29.2639 26.1529 29.8333 24.7779 29.8333 23.1667C29.8333 21.5556 29.2639 20.1806 28.125 19.0417C26.9861 17.9029 25.6111 17.3334 24 17.3334C22.3889 17.3334 21.0139 17.9029 19.875 19.0417C18.7361 20.1806 18.1667 21.5556 18.1667 23.1667C18.1667 24.7779 18.7361 26.1529 19.875 27.2917C21.0139 28.4306 22.3889 29.0001 24 29.0001ZM22.3333 39.0001H20.6667C20.1944 39.0001 19.7986 38.8404 19.4792 38.5209C19.1597 38.2015 19 37.8056 19 37.3334C19 36.8612 19.1597 36.4654 19.4792 36.1459C19.7986 35.8265 20.1944 35.6667 20.6667 35.6667H22.3333V32.1667C20.1667 31.7779 18.375 30.7362 16.9583 29.0417C15.5417 27.3473 14.8333 25.389 14.8333 23.1667C14.8333 22.2501 14.9653 21.3473 15.2292 20.4584C15.4931 19.5695 15.8889 18.7501 16.4167 18.0001L15.3333 16.9167L14.1667 18.0834C13.8611 18.389 13.4792 18.5487 13.0208 18.5626C12.5625 18.5765 12.1667 18.4167 11.8333 18.0834C11.5278 17.7779 11.375 17.3959 11.375 16.9376C11.375 16.4792 11.5278 16.0834 11.8333 15.7501L13 14.5417L9.83333 11.3751V14.0001C9.83333 14.4723 9.67361 14.8681 9.35417 15.1876C9.03472 15.507 8.63889 15.6667 8.16667 15.6667C7.69444 15.6667 7.29861 15.507 6.97917 15.1876C6.65972 14.8681 6.5 14.4723 6.5 14.0001V7.33341C6.5 6.86119 6.65972 6.46536 6.97917 6.14591C7.29861 5.82647 7.69444 5.66675 8.16667 5.66675H14.8333C15.3056 5.66675 15.7014 5.82647 16.0208 6.14591C16.3403 6.46536 16.5 6.86119 16.5 7.33341C16.5 7.80564 16.3403 8.20147 16.0208 8.52091C15.7014 8.84036 15.3056 9.00008 14.8333 9.00008H12.2083L15.375 12.1667L16.5833 10.9584C16.8889 10.6529 17.2708 10.5001 17.7292 10.5001C18.1875 10.5001 18.5833 10.6667 18.9167 11.0001C19.2222 11.3056 19.375 11.6876 19.375 12.1459C19.375 12.6042 19.2222 13.0001 18.9167 13.3334L17.75 14.5417L18.8333 15.6251C19.5833 15.0695 20.4028 14.6598 21.2917 14.3959C22.1806 14.132 23.0833 14.0001 24 14.0001C24.9167 14.0001 25.8194 14.132 26.7083 14.3959C27.5972 14.6598 28.4167 15.0695 29.1667 15.6251L35.7917 9.00008H33.1667C32.6944 9.00008 32.2986 8.84036 31.9792 8.52091C31.6597 8.20147 31.5 7.80564 31.5 7.33341C31.5 6.86119 31.6597 6.46536 31.9792 6.14591C32.2986 5.82647 32.6944 5.66675 33.1667 5.66675H39.8333C40.3056 5.66675 40.7014 5.82647 41.0208 6.14591C41.3403 6.46536 41.5 6.86119 41.5 7.33341V14.0001C41.5 14.4723 41.3403 14.8681 41.0208 15.1876C40.7014 15.507 40.3056 15.6667 39.8333 15.6667C39.3611 15.6667 38.9653 15.507 38.6458 15.1876C38.3264 14.8681 38.1667 14.4723 38.1667 14.0001V11.3751L31.5417 17.9584C32.0694 18.7362 32.4722 19.5626 32.75 20.4376C33.0278 21.3126 33.1667 22.2223 33.1667 23.1667C33.1667 25.389 32.4583 27.3473 31.0417 29.0417C29.625 30.7362 27.8333 31.7779 25.6667 32.1667V35.6667H27.3333C27.8056 35.6667 28.2014 35.8265 28.5208 36.1459C28.8403 36.4654 29 36.8612 29 37.3334C29 37.8056 28.8403 38.2015 28.5208 38.5209C28.2014 38.8404 27.8056 39.0001 27.3333 39.0001H25.6667V40.6667C25.6667 41.139 25.5069 41.5348 25.1875 41.8542C24.8681 42.1737 24.4722 42.3334 24 42.3334C23.5278 42.3334 23.1319 42.1737 22.8125 41.8542C22.4931 41.5348 22.3333 41.139 22.3333 40.6667V39.0001Z" fill="#BC8035"/>
</svg>
