<svg width="33" height="30" viewBox="0 0 33 30" fill="none" xmlns="http://www.w3.org/2000/svg">
<path d="M16.25 29.1436C15.8808 29.1436 15.515 29.0787 15.1526 28.9488C14.7902 28.8188 14.4654 28.6171 14.1782 28.3436L11.5936 25.9847C8.63974 23.2906 6.01068 20.6513 3.70641 18.0667C1.40214 15.4821 0.25 12.6582 0.25 9.59491C0.25 7.10602 1.08419 5.02739 2.75256 3.35901C4.42094 1.69063 6.49957 0.856445 8.98846 0.856445C10.397 0.856445 11.7338 1.16072 12.9987 1.76927C14.2637 2.37781 15.3474 3.23593 16.25 4.34363C17.1799 3.23593 18.2705 2.37781 19.5218 1.76927C20.7731 1.16072 22.103 0.856445 23.5115 0.856445C26.0004 0.856445 28.0791 1.69063 29.7474 3.35901C31.4158 5.02739 32.25 7.10602 32.25 9.59491C32.25 12.6582 31.1013 15.4855 28.8038 18.077C26.5064 20.6684 23.8739 23.3043 20.9064 25.9847L18.3218 28.3436C18.0346 28.6171 17.7098 28.8188 17.3474 28.9488C16.985 29.0787 16.6192 29.1436 16.25 29.1436Z" fill="#BC8035"/>
</svg>
