<svg width="49" height="54" viewBox="0 0 49 54" fill="none" xmlns="http://www.w3.org/2000/svg">
<rect width="48" height="54" transform="translate(0.25)" fill="white"/>
<path d="M24.25 41.1436C23.8808 41.1436 23.515 41.0787 23.1526 40.9488C22.7902 40.8188 22.4654 40.6171 22.1782 40.3436L19.5936 37.9847C16.6397 35.2906 14.0107 32.6513 11.7064 30.0667C9.40214 27.4821 8.25 24.6582 8.25 21.5949C8.25 19.106 9.08419 17.0274 10.7526 15.359C12.4209 13.6906 14.4996 12.8564 16.9885 12.8564C18.397 12.8564 19.7338 13.1607 20.9987 13.7693C22.2637 14.3778 23.3474 15.2359 24.25 16.3436C25.1799 15.2359 26.2705 14.3778 27.5218 13.7693C28.7731 13.1607 30.103 12.8564 31.5115 12.8564C34.0004 12.8564 36.0791 13.6906 37.7474 15.359C39.4158 17.0274 40.25 19.106 40.25 21.5949C40.25 24.6582 39.1013 27.4855 36.8038 30.077C34.5064 32.6684 31.8739 35.3043 28.9064 37.9847L26.3218 40.3436C26.0346 40.6171 25.7098 40.8188 25.3474 40.9488C24.985 41.0787 24.6192 41.1436 24.25 41.1436Z" fill="#BC8035"/>
</svg>
