<svg width="112" height="43" viewBox="0 0 112 43" fill="none" xmlns="http://www.w3.org/2000/svg">
<g filter="url(#filter0_d_2658_73335)">
<path d="M4 12C4 7.58172 7.58172 4 12 4H96C100.418 4 104 7.58172 104 12V27C104 31.4183 100.418 35 96 35H4V12Z" fill="white"/>
<path d="M32.3227 24.5V23.828L36.9667 16.64H32.7427V15.704H38.3347V16.364L33.6907 23.552H38.3947V24.5H32.3227ZM39.2953 24.5V23.828L43.9393 16.64H39.7153V15.704H45.3073V16.364L40.6633 23.552H45.3673V24.5H39.2953ZM46.268 24.5V23.828L50.912 16.64H46.688V15.704H52.28V16.364L47.636 23.552H52.34V24.5H46.268ZM54.5664 24.656C54.3504 24.656 54.1624 24.58 54.0024 24.428C53.8504 24.268 53.7744 24.068 53.7744 23.828C53.7744 23.572 53.8504 23.368 54.0024 23.216C54.1624 23.064 54.3504 22.988 54.5664 22.988C54.7824 22.988 54.9664 23.064 55.1184 23.216C55.2784 23.368 55.3584 23.572 55.3584 23.828C55.3584 24.068 55.2784 24.268 55.1184 24.428C54.9664 24.58 54.7824 24.656 54.5664 24.656ZM57.9063 24.656C57.6903 24.656 57.5023 24.58 57.3423 24.428C57.1903 24.268 57.1143 24.068 57.1143 23.828C57.1143 23.572 57.1903 23.368 57.3423 23.216C57.5023 23.064 57.6903 22.988 57.9063 22.988C58.1223 22.988 58.3063 23.064 58.4583 23.216C58.6183 23.368 58.6983 23.572 58.6983 23.828C58.6983 24.068 58.6183 24.268 58.4583 24.428C58.3063 24.58 58.1223 24.656 57.9063 24.656ZM61.2461 24.656C61.0301 24.656 60.8421 24.58 60.6821 24.428C60.5301 24.268 60.4541 24.068 60.4541 23.828C60.4541 23.572 60.5301 23.368 60.6821 23.216C60.8421 23.064 61.0301 22.988 61.2461 22.988C61.4621 22.988 61.6461 23.064 61.7981 23.216C61.9581 23.368 62.0381 23.572 62.0381 23.828C62.0381 24.068 61.9581 24.268 61.7981 24.428C61.6461 24.58 61.4621 24.656 61.2461 24.656ZM64.586 24.656C64.37 24.656 64.182 24.58 64.022 24.428C63.87 24.268 63.794 24.068 63.794 23.828C63.794 23.572 63.87 23.368 64.022 23.216C64.182 23.064 64.37 22.988 64.586 22.988C64.802 22.988 64.986 23.064 65.138 23.216C65.298 23.368 65.378 23.572 65.378 23.828C65.378 24.068 65.298 24.268 65.138 24.428C64.986 24.58 64.802 24.656 64.586 24.656ZM67.9258 24.656C67.7098 24.656 67.5218 24.58 67.3618 24.428C67.2098 24.268 67.1338 24.068 67.1338 23.828C67.1338 23.572 67.2098 23.368 67.3618 23.216C67.5218 23.064 67.7098 22.988 67.9258 22.988C68.1418 22.988 68.3258 23.064 68.4778 23.216C68.6378 23.368 68.7178 23.572 68.7178 23.828C68.7178 24.068 68.6378 24.268 68.4778 24.428C68.3258 24.58 68.1418 24.656 67.9258 24.656ZM71.2657 24.656C71.0497 24.656 70.8617 24.58 70.7017 24.428C70.5497 24.268 70.4737 24.068 70.4737 23.828C70.4737 23.572 70.5497 23.368 70.7017 23.216C70.8617 23.064 71.0497 22.988 71.2657 22.988C71.4817 22.988 71.6657 23.064 71.8177 23.216C71.9777 23.368 72.0577 23.572 72.0577 23.828C72.0577 24.068 71.9777 24.268 71.8177 24.428C71.6657 24.58 71.4817 24.656 71.2657 24.656ZM74.6055 24.656C74.3895 24.656 74.2015 24.58 74.0415 24.428C73.8895 24.268 73.8135 24.068 73.8135 23.828C73.8135 23.572 73.8895 23.368 74.0415 23.216C74.2015 23.064 74.3895 22.988 74.6055 22.988C74.8215 22.988 75.0055 23.064 75.1575 23.216C75.3175 23.368 75.3975 23.572 75.3975 23.828C75.3975 24.068 75.3175 24.268 75.1575 24.428C75.0055 24.58 74.8215 24.656 74.6055 24.656Z" fill="#BC8035"/>
</g>
<defs>
<filter id="filter0_d_2658_73335" x="0" y="0" width="112" height="43" filterUnits="userSpaceOnUse" color-interpolation-filters="sRGB">
<feFlood flood-opacity="0" result="BackgroundImageFix"/>
<feColorMatrix in="SourceAlpha" type="matrix" values="0 0 0 0 0 0 0 0 0 0 0 0 0 0 0 0 0 0 127 0" result="hardAlpha"/>
<feOffset dx="2" dy="2"/>
<feGaussianBlur stdDeviation="3"/>
<feComposite in2="hardAlpha" operator="out"/>
<feColorMatrix type="matrix" values="0 0 0 0 0 0 0 0 0 0 0 0 0 0 0 0 0 0 0.1 0"/>
<feBlend mode="normal" in2="BackgroundImageFix" result="effect1_dropShadow_2658_73335"/>
<feBlend mode="normal" in="SourceGraphic" in2="effect1_dropShadow_2658_73335" result="shape"/>
</filter>
</defs>
</svg>
