<svg width="32" height="32" viewBox="0 0 32 32" fill="none" xmlns="http://www.w3.org/2000/svg">
<path d="M16 1.5C24.0081 1.5 30.5 7.99187 30.5 16C30.5 24.0081 24.0081 30.5 16 30.5C7.99187 30.5 1.5 24.0081 1.5 16C1.5 7.99187 7.99187 1.5 16 1.5Z" stroke="#BC8035" stroke-width="3"/>
<path d="M9.96169 15.53C9.41677 15.53 8.9536 15.3393 8.57216 14.9578C8.19072 14.5764 8 14.1132 8 13.5683C8 13.0234 8.19072 12.5602 8.57216 12.1788C8.9536 11.7973 9.41677 11.6066 9.96169 11.6066C10.5066 11.6066 10.9698 11.7973 11.3512 12.1788C11.7327 12.5602 11.9234 13.0234 11.9234 13.5683C11.9234 14.1132 11.7327 14.5764 11.3512 14.9578C10.9698 15.3393 10.5066 15.53 9.96169 15.53ZM13.5785 12.3218C13.0336 12.3218 12.5705 12.1311 12.189 11.7497C11.8076 11.3682 11.6169 10.905 11.6169 10.3601C11.6169 9.81521 11.8076 9.35203 12.189 8.9706C12.5705 8.58916 13.0336 8.39844 13.5785 8.39844C14.1235 8.39844 14.5866 8.58916 14.9681 8.9706C15.3495 9.35203 15.5402 9.81521 15.5402 10.3601C15.5402 10.905 15.3495 11.3682 14.9681 11.7497C14.5866 12.1311 14.1235 12.3218 13.5785 12.3218ZM18.4215 12.3218C17.8765 12.3218 17.4134 12.1311 17.0319 11.7497C16.6505 11.3682 16.4598 10.905 16.4598 10.3601C16.4598 9.81521 16.6505 9.35203 17.0319 8.9706C17.4134 8.58916 17.8765 8.39844 18.4215 8.39844C18.9664 8.39844 19.4295 8.58916 19.811 8.9706C20.1924 9.35203 20.3831 9.81521 20.3831 10.3601C20.3831 10.905 20.1924 11.3682 19.811 11.7497C19.4295 12.1311 18.9664 12.3218 18.4215 12.3218ZM22.0383 15.53C21.4934 15.53 21.0302 15.3393 20.6488 14.9578C20.2673 14.5764 20.0766 14.1132 20.0766 13.5683C20.0766 13.0234 20.2673 12.5602 20.6488 12.1788C21.0302 11.7973 21.4934 11.6066 22.0383 11.6066C22.5832 11.6066 23.0464 11.7973 23.4278 12.1788C23.8093 12.5602 24 13.0234 24 13.5683C24 14.1132 23.8093 14.5764 23.4278 14.9578C23.0464 15.3393 22.5832 15.53 22.0383 15.53ZM11.7033 23.6015C11.1008 23.6015 10.5986 23.3746 10.1967 22.9208C9.79481 22.4671 9.59387 21.9311 9.59387 21.3129C9.59387 20.6113 9.82886 20 10.2989 19.4789C10.7688 18.9578 11.2422 18.4439 11.719 17.9371C12.1141 17.5238 12.4547 17.0738 12.7407 16.587C13.0268 16.1003 13.3606 15.639 13.742 15.203C14.0349 14.8693 14.3704 14.5883 14.7484 14.3601C15.1264 14.1319 15.5406 14.0178 15.991 14.0178C16.4412 14.0178 16.8584 14.1268 17.2426 14.3448C17.6266 14.5628 17.9651 14.842 18.258 15.1826C18.6394 15.6117 18.9749 16.0715 19.2644 16.5619C19.5539 17.0523 19.8931 17.5124 20.282 17.942C20.7513 18.4523 21.2226 18.9663 21.696 19.484C22.1694 20.0017 22.4061 20.6113 22.4061 21.3129C22.4061 21.9311 22.2052 22.4671 21.8033 22.9208C21.4014 23.3746 20.8999 23.6015 20.2987 23.6015C19.5773 23.6015 18.8625 23.5402 18.1544 23.4176C17.4464 23.295 16.7317 23.2337 16.0102 23.2337C15.2814 23.2337 14.5621 23.295 13.8524 23.4176C13.1427 23.5402 12.4264 23.6015 11.7033 23.6015Z" fill="#BC8035"/>
</svg>
