<svg width="48" height="48" viewBox="0 0 48 48" fill="none" xmlns="http://www.w3.org/2000/svg">
<path d="M24 9.5C32.0081 9.5 38.5 15.9919 38.5 24C38.5 32.0081 32.0081 38.5 24 38.5C15.9919 38.5 9.5 32.0081 9.5 24C9.5 15.9919 15.9919 9.5 24 9.5Z" stroke="#BC8035" stroke-width="3"/>
<path d="M17.9617 23.53C17.4168 23.53 16.9536 23.3393 16.5722 22.9578C16.1907 22.5764 16 22.1132 16 21.5683C16 21.0234 16.1907 20.5602 16.5722 20.1788C16.9536 19.7973 17.4168 19.6066 17.9617 19.6066C18.5066 19.6066 18.9698 19.7973 19.3512 20.1788C19.7327 20.5602 19.9234 21.0234 19.9234 21.5683C19.9234 22.1132 19.7327 22.5764 19.3512 22.9578C18.9698 23.3393 18.5066 23.53 17.9617 23.53ZM21.5785 20.3218C21.0336 20.3218 20.5705 20.1311 20.189 19.7497C19.8076 19.3682 19.6169 18.905 19.6169 18.3601C19.6169 17.8152 19.8076 17.352 20.189 16.9706C20.5705 16.5892 21.0336 16.3984 21.5785 16.3984C22.1235 16.3984 22.5866 16.5892 22.9681 16.9706C23.3495 17.352 23.5402 17.8152 23.5402 18.3601C23.5402 18.905 23.3495 19.3682 22.9681 19.7497C22.5866 20.1311 22.1235 20.3218 21.5785 20.3218ZM26.4215 20.3218C25.8765 20.3218 25.4134 20.1311 25.0319 19.7497C24.6505 19.3682 24.4598 18.905 24.4598 18.3601C24.4598 17.8152 24.6505 17.352 25.0319 16.9706C25.4134 16.5892 25.8765 16.3984 26.4215 16.3984C26.9664 16.3984 27.4295 16.5892 27.811 16.9706C28.1924 17.352 28.3831 17.8152 28.3831 18.3601C28.3831 18.905 28.1924 19.3682 27.811 19.7497C27.4295 20.1311 26.9664 20.3218 26.4215 20.3218ZM30.0383 23.53C29.4934 23.53 29.0302 23.3393 28.6488 22.9578C28.2673 22.5764 28.0766 22.1132 28.0766 21.5683C28.0766 21.0234 28.2673 20.5602 28.6488 20.1788C29.0302 19.7973 29.4934 19.6066 30.0383 19.6066C30.5832 19.6066 31.0464 19.7973 31.4278 20.1788C31.8093 20.5602 32 21.0234 32 21.5683C32 22.1132 31.8093 22.5764 31.4278 22.9578C31.0464 23.3393 30.5832 23.53 30.0383 23.53ZM19.7033 31.6015C19.1008 31.6015 18.5986 31.3746 18.1967 30.9208C17.7948 30.4671 17.5939 29.9311 17.5939 29.3129C17.5939 28.6113 17.8289 28 18.2989 27.4789C18.7688 26.9578 19.2422 26.4439 19.719 25.9371C20.1141 25.5238 20.4547 25.0738 20.7407 24.587C21.0268 24.1003 21.3606 23.639 21.742 23.203C22.0349 22.8693 22.3704 22.5883 22.7484 22.3601C23.1264 22.1319 23.5406 22.0178 23.991 22.0178C24.4412 22.0178 24.8584 22.1268 25.2426 22.3448C25.6266 22.5628 25.9651 22.842 26.258 23.1826C26.6394 23.6117 26.9749 24.0715 27.2644 24.5619C27.5539 25.0523 27.8931 25.5124 28.282 25.942C28.7513 26.4523 29.2226 26.9663 29.696 27.484C30.1694 28.0017 30.4061 28.6113 30.4061 29.3129C30.4061 29.9311 30.2052 30.4671 29.8033 30.9208C29.4014 31.3746 28.8999 31.6015 28.2987 31.6015C27.5773 31.6015 26.8625 31.5402 26.1544 31.4176C25.4464 31.295 24.7317 31.2337 24.0102 31.2337C23.2814 31.2337 22.5621 31.295 21.8524 31.4176C21.1427 31.5402 20.4264 31.6015 19.7033 31.6015Z" fill="#BC8035"/>
</svg>
