<svg width="471" height="486" viewBox="0 0 471 486" fill="none" xmlns="http://www.w3.org/2000/svg">
<g filter="url(#filter0_f_2658_31391)">
<path d="M180.586 89.8538C206.777 50.8145 264.223 50.8145 290.414 89.8538C301.82 106.856 320.531 117.617 340.96 118.971C387.79 122.076 416.634 171.768 395.878 213.862C386.82 232.231 386.82 253.769 395.878 272.138C416.634 314.232 387.79 363.924 340.96 367.029C320.531 368.383 301.82 379.144 290.414 396.146C264.223 435.186 206.777 435.186 180.586 396.146C169.18 379.144 150.469 368.383 130.04 367.029C83.2101 363.924 54.3659 314.232 75.1222 272.138C84.1801 253.769 84.1801 232.231 75.1222 213.862C54.3659 171.768 83.2101 122.076 130.04 118.971C150.469 117.617 169.18 106.856 180.586 89.8538Z" fill="url(#paint0_linear_2658_31391)"/>
</g>
<defs>
<filter id="filter0_f_2658_31391" x="2.58467" y="-5.12569" width="465.831" height="496.251" filterUnits="userSpaceOnUse" color-interpolation-filters="sRGB">
<feFlood flood-opacity="0" result="BackgroundImageFix"/>
<feBlend mode="normal" in="SourceGraphic" in2="BackgroundImageFix" result="shape"/>
<feGaussianBlur stdDeviation="32.85" result="effect1_foregroundBlur_2658_31391"/>
</filter>
<linearGradient id="paint0_linear_2658_31391" x1="235.5" y1="8" x2="235.5" y2="478" gradientUnits="userSpaceOnUse">
<stop stop-color="#D6F1FF"/>
<stop offset="1" stop-color="#F4D588"/>
</linearGradient>
</defs>
</svg>
