<svg width="83" height="83" viewBox="0 0 83 83" fill="none" xmlns="http://www.w3.org/2000/svg">
<g filter="url(#filter0_d_3647_3269)">
<path d="M55.9867 47.1819C65.6661 48.9654 72.25 52.4812 72.25 56.5299C72.25 62.3827 58.4808 67.125 41.5 67.125C24.5192 67.125 10.75 62.3827 10.75 56.5299C10.75 52.4812 17.3373 48.9654 27.0133 47.1819C31.2158 48.2752 36.1837 48.9005 41.5 48.9005C46.8163 48.9005 51.7842 48.2684 55.9867 47.1819ZM52.2864 30.02C60.5069 31.3867 66.1683 34.2669 66.1683 37.5982C66.1683 42.2517 55.1257 46.0237 41.5034 46.0237C27.8812 46.0237 16.8351 42.2517 16.8351 37.5982C16.8351 34.2669 22.4999 31.3867 30.7204 30.02C34.2497 30.8796 37.8711 31.303 41.5034 31.2807C45.1358 31.303 48.7572 30.8796 52.2864 30.02ZM41.6128 15.875C51.8149 15.875 60.0867 18.7279 60.0867 22.2539C60.0867 25.7731 51.8149 28.6294 41.6128 28.6294C31.4106 28.6294 23.1388 25.7731 23.1388 22.2539C23.1388 18.7279 31.4106 15.875 41.6128 15.875Z" fill="white"/>
</g>
<defs>
<filter id="filter0_d_3647_3269" x="-3.5" y="0.5" width="90" height="90" filterUnits="userSpaceOnUse" color-interpolation-filters="sRGB">
<feFlood flood-opacity="0" result="BackgroundImageFix"/>
<feColorMatrix in="SourceAlpha" type="matrix" values="0 0 0 0 0 0 0 0 0 0 0 0 0 0 0 0 0 0 127 0" result="hardAlpha"/>
<feOffset dy="4"/>
<feGaussianBlur stdDeviation="2"/>
<feComposite in2="hardAlpha" operator="out"/>
<feColorMatrix type="matrix" values="0 0 0 0 0 0 0 0 0 0 0 0 0 0 0 0 0 0 0.25 0"/>
<feBlend mode="normal" in2="BackgroundImageFix" result="effect1_dropShadow_3647_3269"/>
<feBlend mode="normal" in="SourceGraphic" in2="effect1_dropShadow_3647_3269" result="shape"/>
</filter>
</defs>
</svg>
