<svg width="12" height="12" viewBox="0 0 12 12" fill="none" xmlns="http://www.w3.org/2000/svg">
<path d="M10.2937 0.29441C10.6842 -0.0961836 11.3173 -0.0961837 11.7078 0.29441C12.0979 0.68495 12.0979 1.31796 11.7078 1.70847L7.41287 6.00339L11.7 10.2915C12.0901 10.682 12.0901 11.315 11.7 11.7055C11.3095 12.0961 10.6764 12.0961 10.2859 11.7055L5.99978 7.41746L1.71365 11.7055C1.3232 12.0961 0.690042 12.0961 0.299588 11.7055C-0.0905491 11.315 -0.090633 10.682 0.299588 10.2915L4.58572 6.00339L0.291775 1.70847C-0.0985827 1.31792 -0.0985384 0.684988 0.291775 0.29441C0.682236 -0.0961775 1.31538 -0.0961775 1.70584 0.29441L5.99978 4.58933L10.2937 0.29441Z" fill="#BC8035"/>
</svg>
