<svg width="88" height="87" viewBox="0 0 88 87" fill="none" xmlns="http://www.w3.org/2000/svg">
<path d="M43.9943 39.7778C46.066 39.7778 47.8415 39.04 49.3209 37.5645C50.8002 36.089 51.5399 34.3153 51.5399 32.2436C51.5399 30.1719 50.8021 28.3964 49.3266 26.917C47.8511 25.4377 46.0774 24.698 44.0057 24.698C41.934 24.698 40.1585 25.4358 38.6791 26.9113C37.1998 28.3868 36.4601 30.1604 36.4601 32.2322C36.4601 34.3039 37.1979 36.0794 38.6734 37.5588C40.1489 39.0381 41.9226 39.7778 43.9943 39.7778ZM25.4843 38.8234V24.698H17.6581V28.5157C17.6581 30.9335 18.3819 33.081 19.8294 34.958C21.2769 36.835 23.1619 38.1235 25.4843 38.8234ZM62.5157 38.8234C64.8381 38.1235 66.7231 36.835 68.1706 34.958C69.6181 33.081 70.3419 30.9335 70.3419 28.5157V24.698H62.5157V38.8234ZM40.4209 69.8419V57.7208C37.335 57.0527 34.5831 55.7563 32.1652 53.8316C29.7474 51.9068 27.9843 49.481 26.8759 46.5541C22.2578 45.9815 18.3739 43.9931 15.2244 40.589C12.0748 37.1849 10.5 33.1605 10.5 28.5157V24.698C10.5 22.7294 11.2009 21.0442 12.6026 19.6425C14.0043 18.2407 15.6895 17.5399 17.6581 17.5399H25.4843V17.1581C25.4843 15.1895 26.1852 13.5043 27.5869 12.1026C28.9886 10.7009 30.6738 10 32.6425 10H55.3575C57.3262 10 59.0114 10.7009 60.4131 12.1026C61.8148 13.5043 62.5157 15.1895 62.5157 17.1581V17.5399H70.3419C72.3105 17.5399 73.9957 18.2407 75.3974 19.6425C76.7991 21.0442 77.5 22.7294 77.5 24.698V28.5157C77.5 33.1605 75.9252 37.1849 72.7756 40.589C69.6261 43.9931 65.7422 45.9815 61.1241 46.5541C60.0157 49.481 58.2526 51.9068 55.8348 53.8316C53.4169 55.7563 50.665 57.0527 47.5791 57.7208V69.8419H58.7934C59.7797 69.8419 60.6227 70.1918 61.3227 70.8917C62.0226 71.5916 62.3725 72.4347 62.3725 73.4209C62.3725 74.4072 62.0226 75.2502 61.3227 75.9501C60.6227 76.65 59.7797 77 58.7934 77H29.2066C28.2203 77 27.3773 76.65 26.6774 75.9501C25.9774 75.2502 25.6275 74.4072 25.6275 73.4209C25.6275 72.4347 25.9774 71.5916 26.6774 70.8917C27.3773 70.1918 28.2203 69.8419 29.2066 69.8419H40.4209Z" fill="#BC8035"/>
</svg>
