<svg width="48" height="48" viewBox="0 0 48 48" fill="none" xmlns="http://www.w3.org/2000/svg">
<path d="M14.7337 40C13.9238 40 13.2306 39.7117 12.6539 39.135C12.0773 38.5584 11.7889 37.8651 11.7889 37.0552V21.5853C11.7889 20.7754 12.0773 20.0821 12.6539 19.5055C13.2306 18.9288 13.9238 18.6405 14.7337 18.6405H16.4221V15.5862C16.4221 13.4735 17.1583 11.681 18.6307 10.2086C20.1031 8.7362 21.8928 8 24 8C26.1071 8 27.8969 8.7362 29.3693 10.2086C30.8417 11.681 31.5779 13.4735 31.5779 15.5862V18.6405H33.2662C34.0761 18.6405 34.7694 18.9288 35.346 19.5055C35.9227 20.0821 36.211 20.7754 36.211 21.5853V37.0552C36.211 37.8651 35.9227 38.5584 35.346 39.135C34.7694 39.7117 34.0761 40 33.2662 40H14.7337ZM14.7337 37.0552H33.2662V21.5853H14.7337V37.0552ZM24 32.3436C24.8313 32.3436 25.5431 32.0475 26.1351 31.4554C26.7272 30.8633 27.0233 30.1516 27.0233 29.3202C27.0233 28.4889 26.7272 27.7772 26.1351 27.1851C25.5431 26.593 24.8313 26.2969 24 26.2969C23.1686 26.2969 22.4569 26.593 21.8648 27.1851C21.2727 27.7772 20.9767 28.4889 20.9767 29.3202C20.9767 30.1516 21.2727 30.8633 21.8648 31.4554C22.4569 32.0475 23.1686 32.3436 24 32.3436ZM19.3669 18.6405H28.6331V15.572C28.6331 14.2933 28.1831 13.2025 27.2832 12.2994C26.3833 11.3963 25.2905 10.9448 24.0047 10.9448C22.7189 10.9448 21.6245 11.3953 20.7215 12.2962C19.8184 13.197 19.3669 14.2908 19.3669 15.5779V18.6405Z" fill="white"/>
</svg>
