<svg width="48" height="49" viewBox="0 0 48 49" fill="none" xmlns="http://www.w3.org/2000/svg">
<path d="M40 10.3898V18.4528C40 18.9735 39.8152 19.4186 39.4457 19.7882C39.0761 20.1577 38.631 20.3425 38.1102 20.3425C37.5895 20.3425 37.1444 20.1577 36.7748 19.7882C36.4052 19.4186 36.2205 18.9735 36.2205 18.4528V14.9756L27.9307 23.215C28.569 24.1556 29.0604 25.1578 29.4047 26.2214C29.7491 27.2851 29.9213 28.3911 29.9213 29.5394C29.9213 32.5949 28.8583 35.1856 26.7323 37.3116C24.6064 39.4372 22.0153 40.5 18.9591 40.5C15.9029 40.5 13.3123 39.437 11.1874 37.3111C9.06247 35.1851 8 32.5941 8 29.5379C8 26.4816 9.0628 23.8911 11.1884 21.7661C13.3144 19.6412 15.9051 18.5787 18.9606 18.5787C20.0861 18.5787 21.1864 18.7467 22.2614 19.0827C23.3365 19.4186 24.336 19.9142 25.2598 20.5693L33.5244 12.2795H30.0472C29.5265 12.2795 29.0814 12.0948 28.7118 11.7252C28.3423 11.3556 28.1575 10.9105 28.1575 10.3898C28.1575 9.86903 28.3423 9.42388 28.7118 9.05433C29.0814 8.68478 29.5265 8.5 30.0472 8.5H38.1102C38.631 8.5 39.0761 8.68478 39.4457 9.05433C39.8152 9.42388 40 9.86903 40 10.3898ZM18.9621 22.3583C16.979 22.3583 15.2861 23.0591 13.8835 24.4607C12.4808 25.8626 11.7795 27.555 11.7795 29.5379C11.7795 31.521 12.4803 33.2139 13.882 34.6165C15.2839 36.0192 16.9763 36.7205 18.9591 36.7205C20.9423 36.7205 22.6352 36.0197 24.0378 34.618C25.4404 33.2161 26.1417 31.5237 26.1417 29.5409C26.1417 27.5577 25.4409 25.8648 24.0393 24.4622C22.6374 23.0596 20.945 22.3583 18.9621 22.3583Z" fill="#BC8035"/>
</svg>
