<svg width="49" height="49" viewBox="0 0 49 49" fill="none" xmlns="http://www.w3.org/2000/svg">
<path d="M24.5 29.4998C26.1111 29.4998 27.4861 28.9304 28.625 27.7915C29.7639 26.6526 30.3333 25.2776 30.3333 23.6665C30.3333 22.0554 29.7639 20.6804 28.625 19.5415C27.4861 18.4026 26.1111 17.8332 24.5 17.8332C22.8889 17.8332 21.5139 18.4026 20.375 19.5415C19.2361 20.6804 18.6667 22.0554 18.6667 23.6665C18.6667 25.2776 19.2361 26.6526 20.375 27.7915C21.5139 28.9304 22.8889 29.4998 24.5 29.4998ZM22.8333 39.4998H21.1667C20.6944 39.4998 20.2986 39.3401 19.9792 39.0207C19.6597 38.7012 19.5 38.3054 19.5 37.8332C19.5 37.3609 19.6597 36.9651 19.9792 36.6457C20.2986 36.3262 20.6944 36.1665 21.1667 36.1665H22.8333V32.6665C20.6667 32.2776 18.875 31.2359 17.4583 29.5415C16.0417 27.8471 15.3333 25.8887 15.3333 23.6665C15.3333 22.7498 15.4653 21.8471 15.7292 20.9582C15.9931 20.0693 16.3889 19.2498 16.9167 18.4998L15.8333 17.4165L14.6667 18.5832C14.3611 18.8887 13.9792 19.0484 13.5208 19.0623C13.0625 19.0762 12.6667 18.9165 12.3333 18.5832C12.0278 18.2776 11.875 17.8957 11.875 17.4373C11.875 16.979 12.0278 16.5832 12.3333 16.2498L13.5 15.0415L10.3333 11.8748V14.4998C10.3333 14.9721 10.1736 15.3679 9.85417 15.6873C9.53472 16.0068 9.13889 16.1665 8.66667 16.1665C8.19444 16.1665 7.79861 16.0068 7.47917 15.6873C7.15972 15.3679 7 14.9721 7 14.4998V7.83317C7 7.36095 7.15972 6.96512 7.47917 6.64567C7.79861 6.32623 8.19444 6.1665 8.66667 6.1665H15.3333C15.8056 6.1665 16.2014 6.32623 16.5208 6.64567C16.8403 6.96512 17 7.36095 17 7.83317C17 8.30539 16.8403 8.70123 16.5208 9.02067C16.2014 9.34012 15.8056 9.49984 15.3333 9.49984H12.7083L15.875 12.6665L17.0833 11.4582C17.3889 11.1526 17.7708 10.9998 18.2292 10.9998C18.6875 10.9998 19.0833 11.1665 19.4167 11.4998C19.7222 11.8054 19.875 12.1873 19.875 12.6457C19.875 13.104 19.7222 13.4998 19.4167 13.8332L18.25 15.0415L19.3333 16.1248C20.0833 15.5693 20.9028 15.1596 21.7917 14.8957C22.6806 14.6318 23.5833 14.4998 24.5 14.4998C25.4167 14.4998 26.3194 14.6318 27.2083 14.8957C28.0972 15.1596 28.9167 15.5693 29.6667 16.1248L36.2917 9.49984H33.6667C33.1944 9.49984 32.7986 9.34012 32.4792 9.02067C32.1597 8.70123 32 8.30539 32 7.83317C32 7.36095 32.1597 6.96512 32.4792 6.64567C32.7986 6.32623 33.1944 6.1665 33.6667 6.1665H40.3333C40.8056 6.1665 41.2014 6.32623 41.5208 6.64567C41.8403 6.96512 42 7.36095 42 7.83317V14.4998C42 14.9721 41.8403 15.3679 41.5208 15.6873C41.2014 16.0068 40.8056 16.1665 40.3333 16.1665C39.8611 16.1665 39.4653 16.0068 39.1458 15.6873C38.8264 15.3679 38.6667 14.9721 38.6667 14.4998V11.8748L32.0417 18.4582C32.5694 19.2359 32.9722 20.0623 33.25 20.9373C33.5278 21.8123 33.6667 22.7221 33.6667 23.6665C33.6667 25.8887 32.9583 27.8471 31.5417 29.5415C30.125 31.2359 28.3333 32.2776 26.1667 32.6665V36.1665H27.8333C28.3056 36.1665 28.7014 36.3262 29.0208 36.6457C29.3403 36.9651 29.5 37.3609 29.5 37.8332C29.5 38.3054 29.3403 38.7012 29.0208 39.0207C28.7014 39.3401 28.3056 39.4998 27.8333 39.4998H26.1667V41.1665C26.1667 41.6387 26.0069 42.0346 25.6875 42.354C25.3681 42.6735 24.9722 42.8332 24.5 42.8332C24.0278 42.8332 23.6319 42.6735 23.3125 42.354C22.9931 42.0346 22.8333 41.6387 22.8333 41.1665V39.4998Z" fill="#BC8035"/>
</svg>
