<svg width="48" height="48" viewBox="0 0 48 48" fill="none" xmlns="http://www.w3.org/2000/svg">
<path d="M23.9893 33.0661C24.1898 33.0661 24.3795 33.0339 24.5586 32.9695C24.7376 32.905 24.9059 32.8012 25.0634 32.658C25.7795 32.0135 26.5314 31.3224 27.3192 30.5848C28.1069 29.8472 28.8266 29.0882 29.4782 28.3076C30.1299 27.527 30.6741 26.7465 31.111 25.9659C31.5478 25.1854 31.7662 24.4299 31.7662 23.6994C31.7662 22.525 31.3544 21.5368 30.5309 20.7347C29.7074 19.9327 28.7013 19.5317 27.5125 19.5317C26.8107 19.5317 26.1626 19.6749 25.5683 19.9613C24.9739 20.2478 24.4476 20.6345 23.9893 21.1214C23.5596 20.6345 23.0261 20.2478 22.3888 19.9613C21.7514 19.6749 21.0962 19.5317 20.423 19.5317C19.2629 19.5317 18.2711 19.9327 17.4476 20.7347C16.6241 21.5368 16.2123 22.525 16.2123 23.6994C16.2123 24.4299 16.4307 25.1854 16.8676 25.9659C17.3044 26.7465 17.8486 27.527 18.5003 28.3076C19.1519 29.0882 19.8716 29.8472 20.6594 30.5848C21.4471 31.3224 22.199 32.0135 22.9151 32.658C23.0726 32.8012 23.2409 32.905 23.42 32.9695C23.599 33.0339 23.7887 33.0661 23.9893 33.0661ZM13.9995 38.974C13.1116 38.974 12.3525 38.6589 11.7223 38.0288C11.0921 37.3986 10.7771 36.6395 10.7771 35.7515V22.346L8.58576 24.0002C8.22771 24.258 7.83027 24.3583 7.39344 24.301C6.95661 24.2437 6.60214 24.036 6.33002 23.6779C6.0579 23.3199 5.95406 22.9225 6.01851 22.4856C6.08296 22.0488 6.29421 21.6943 6.65227 21.4222L22.1847 9.67086C22.4711 9.45603 22.7826 9.29491 23.1192 9.18749C23.4558 9.08008 23.7959 9.02637 24.1396 9.02637C24.4834 9.02637 24.8235 9.08366 25.1601 9.19823C25.4967 9.31281 25.8082 9.47752 26.0946 9.69235L41.3692 21.2718C41.7129 21.5439 41.917 21.8984 41.9815 22.3352C42.0459 22.7721 41.9421 23.1695 41.67 23.5276C41.3979 23.8713 41.0434 24.0754 40.6066 24.1398C40.1697 24.2043 39.7795 24.1005 39.4357 23.8283L37.5022 22.389V35.7515C37.5022 36.6395 37.1871 37.3986 36.557 38.0288C35.9268 38.6589 35.1677 38.974 34.2797 38.974H13.9995Z" fill="#BC8035"/>
</svg>
