<svg width="48" height="48" viewBox="0 0 48 48" fill="none" xmlns="http://www.w3.org/2000/svg">
<path d="M33.9355 40C33.4022 40 32.9462 39.8108 32.5677 39.4323C32.1892 39.0538 32 38.5978 32 38.0645V28.5161C32 27.9828 32.1892 27.5269 32.5677 27.1484C32.9462 26.7699 33.4022 26.5806 33.9355 26.5806H38.0645C38.5978 26.5806 39.0538 26.7699 39.4323 27.1484C39.8108 27.5269 40 27.9828 40 28.5161V38.0645C40 38.5978 39.8108 39.0538 39.4323 39.4323C39.0538 39.8108 38.5978 40 38.0645 40H33.9355ZM21.9355 40C21.4022 40 20.9462 39.8108 20.5677 39.4323C20.1892 39.0538 20 38.5978 20 38.0645V9.93548C20 9.40215 20.1892 8.94624 20.5677 8.56774C20.9462 8.18925 21.4022 8 21.9355 8H26.0645C26.5978 8 27.0538 8.18925 27.4323 8.56774C27.8108 8.94624 28 9.40215 28 9.93548V38.0645C28 38.5978 27.8108 39.0538 27.4323 39.4323C27.0538 39.8108 26.5978 40 26.0645 40H21.9355ZM9.93548 40C9.40215 40 8.94624 39.8108 8.56774 39.4323C8.18925 39.0538 8 38.5978 8 38.0645V20.2581C8 19.7247 8.18925 19.2688 8.56774 18.8903C8.94624 18.5118 9.40215 18.3226 9.93548 18.3226H14.0645C14.5978 18.3226 15.0538 18.5118 15.4323 18.8903C15.8108 19.2688 16 19.7247 16 20.2581V38.0645C16 38.5978 15.8108 39.0538 15.4323 39.4323C15.0538 39.8108 14.5978 40 14.0645 40H9.93548Z" fill="#BC8035"/>
</svg>
