<svg width="48" height="49" viewBox="0 0 48 49" fill="none" xmlns="http://www.w3.org/2000/svg">
<path d="M38.7302 21.5925C39.3445 19.0512 39.5106 16.3572 39.2153 13.79C38.8884 10.9433 38.0132 9.40347 36.6133 9.21714C36.4921 9.20161 36.3655 9.19385 36.2337 9.19385C34.5149 9.19385 32.3558 10.5836 30.8479 11.7481C30.1862 12.2605 29.5061 12.9256 28.905 13.5105L28.8101 13.6011C27.1756 13.1378 25.4937 12.9023 23.8092 12.9023C23.2503 12.9023 22.6861 12.9282 22.1352 12.9826C21.165 13.0731 20.1606 13.2595 19.1457 13.539C18.5947 13.0084 17.8856 12.3485 17.1132 11.7507C15.6105 10.5836 13.4541 9.19385 11.73 9.19385C11.6008 9.19385 11.4716 9.20161 11.3504 9.21714C9.24928 9.49922 8.8723 12.7289 8.74839 13.79C8.45314 16.3546 8.62186 19.059 9.23873 21.6158C8.21588 23.7664 7.81517 26.0955 8.07879 28.3573C8.43205 31.3852 9.96633 34.1724 12.3969 36.2065C15.1281 38.4942 19.3539 39.8063 23.9911 39.8063C29.1976 39.8063 33.9165 38.1164 36.6133 35.2878C40.1907 31.5379 40.9974 26.3 38.7302 21.5925ZM33.7029 35.6449C31.3119 37.2779 27.7793 38.2147 24.0148 38.2147C20.4427 38.2147 17.042 37.3633 14.6852 35.8778C12.5446 34.5295 10.9127 32.5316 10.1746 30.3656C11.2554 29.9903 12.4048 29.848 13.4962 29.7367L13.5358 29.7315L13.5727 29.716C13.9049 29.5763 14.0999 29.2476 14.0551 28.8982C14.0103 28.5463 13.7467 28.2823 13.3802 28.2254C13.2906 28.2124 13.1878 28.2047 13.0586 28.2047C12.7845 28.2047 12.4602 28.2357 12.2256 28.259L12.1439 28.2668C11.3187 28.3496 10.5173 28.5333 9.75807 28.8154C9.6368 28.1969 9.62099 27.5706 9.63417 27.0815H9.64998C9.77389 27.0815 9.90043 27.0815 10.0243 27.0763C10.1456 27.0763 10.2669 27.0712 10.3881 27.0712C10.4936 27.0712 10.5964 27.0712 10.7018 27.0789C11.0366 27.0944 11.3925 27.1566 11.7352 27.2161C12.0595 27.273 12.3943 27.3299 12.7186 27.3506C12.7713 27.3532 12.824 27.3558 12.8741 27.3558C13.1983 27.3558 13.4277 27.2756 13.5753 27.1074C13.7098 26.9521 13.7599 26.7425 13.7177 26.4837C13.6307 25.8988 12.8214 25.7617 12.3389 25.6789L12.2071 25.6556C11.44 25.5132 10.6755 25.4744 9.9347 25.4356C9.86616 25.433 9.80025 25.4278 9.73171 25.4252C9.92679 24.2917 10.2906 23.1686 10.8126 22.0791C11.1263 22.1049 11.4426 22.1179 11.7537 22.1179C16.3671 22.1179 20.3267 19.4265 21.6026 15.4178C21.6237 15.3557 21.6554 15.2211 21.6896 15.071C21.7186 14.9494 21.7661 14.7475 21.7977 14.6336C22.0297 14.5845 22.6334 14.5172 22.8311 14.5042C23.1027 14.4887 23.3821 14.481 23.6642 14.481C25.9788 14.481 28.4147 14.9701 30.3497 15.8215C34.6177 17.7029 37.6204 21.37 38.2531 25.4459C38.203 25.4459 38.1529 25.4459 38.1028 25.4459C37.3383 25.4459 36.6397 25.5003 35.9701 25.609C34.7522 25.8108 34.5571 25.9842 34.4833 26.0489C34.2539 26.2585 34.1827 26.5898 34.3014 26.8952C34.4174 27.1876 34.6783 27.3713 34.9842 27.3713H35.0079L35.0316 27.3662C36.1652 27.1591 37.1617 27.0608 38.0738 27.0608C38.1766 27.0608 38.2794 27.0608 38.3823 27.066C38.3796 27.5836 38.3533 28.1969 38.2557 28.8154C37.6731 28.611 37.0457 28.4195 36.3603 28.3185C36.1151 28.2823 35.4929 28.1943 35 28.1943C34.8154 28.1943 34.6678 28.2047 34.5465 28.2305C34.2012 28.3004 33.956 28.5877 33.9376 28.9448C33.9191 29.3045 34.1326 29.6151 34.4727 29.7238L34.4965 29.7315L34.7495 29.76C35.63 29.8583 36.5395 29.9618 37.3805 30.2258C37.4728 30.2569 37.6678 30.3267 37.8128 30.3837C37.0615 32.4773 35.6089 34.338 33.7029 35.6397V35.6449ZM16.4699 14.5612C16.4699 14.5612 16.4541 14.5405 16.4435 14.5327C15.6764 13.7538 14.7485 13.0809 13.9602 12.7315C13.4251 12.496 12.9927 12.3796 12.6342 12.3796C11.5059 12.3796 11.2475 13.5079 11.0946 14.5664C10.9075 15.8681 10.8996 17.263 11.0735 18.7174C10.8547 19.0227 10.6597 19.2919 10.4725 19.5351C10.4593 19.4446 10.4435 19.354 10.4303 19.2634C10.3987 19.059 10.367 18.8649 10.3459 18.6682C10.1693 16.9576 10.222 15.0529 10.4883 13.306C10.8231 11.1607 11.3609 10.8268 11.5744 10.7854C11.6324 10.7751 11.6957 10.7673 11.7642 10.7673C12.4444 10.7673 13.4462 11.3263 13.8732 11.567C14.9831 12.1829 16.0956 13.011 17.353 14.1549L16.4646 14.5612H16.4699ZM37.6177 18.6682C37.5967 18.8623 37.5677 19.0538 37.536 19.2479C37.5228 19.3307 37.5097 19.4161 37.4965 19.5015C37.4543 19.4446 37.4121 19.385 37.3699 19.3255C37.2645 19.1935 37.1564 19.0641 37.0615 18.9529L36.8928 18.7174C37.0668 17.2604 37.0589 15.8655 36.8691 14.5664C36.7162 13.5079 36.4578 12.3796 35.3295 12.3796C34.971 12.3796 34.5386 12.4934 34.0035 12.7315C33.2179 13.0809 32.2899 13.7538 31.5254 14.5275C31.5149 14.5379 31.5043 14.5482 31.4964 14.5612L30.608 14.1549C31.8655 13.011 32.978 12.1855 34.0852 11.567C34.5518 11.3082 35.5219 10.7673 36.1968 10.7673C36.2654 10.7673 36.3313 10.7725 36.3893 10.7854C36.8401 10.876 37.246 11.818 37.4728 13.306C37.7416 15.0503 37.7944 16.955 37.6177 18.6682ZM19.6097 27.2135C19.6097 28.2279 18.9559 29.0483 18.1518 29.0483C17.3478 29.0483 16.694 28.2279 16.694 27.2135C16.694 26.199 17.3478 25.3787 18.1518 25.3787C18.9559 25.3787 19.6097 26.199 19.6097 27.2135ZM31.2829 27.2135C31.2829 28.2279 30.6291 29.0483 29.8251 29.0483C29.021 29.0483 28.3672 28.2279 28.3672 27.2135C28.3672 26.199 29.021 25.3787 29.8251 25.3787C30.6291 25.3787 31.2829 26.199 31.2829 27.2135ZM22.7046 29.5866C22.1299 29.0224 21.9849 27.876 22.9445 27.6301C23.4559 27.5007 24.9243 27.4878 25.3619 27.7699C26.0579 28.215 25.7046 29.2812 25.1537 29.6979C24.9665 29.8376 24.7345 29.8894 24.5684 30.0473C24.5262 31.0436 25.7547 31.9882 26.5719 31.1419C26.8646 30.8392 26.9753 29.9929 27.7082 30.4303C28.3382 30.8055 27.6792 31.763 27.2732 32.0865C26.2635 32.894 24.861 32.7439 24.0069 31.807C23.7565 31.9675 23.5798 32.1926 23.3083 32.3376C22.2617 32.8914 20.8698 32.5653 20.245 31.5638C19.984 31.1445 19.8548 30.4561 20.4954 30.3397C21.0939 30.231 21.1308 30.8029 21.3918 31.1057C21.9005 31.6932 22.8496 31.5042 23.2002 30.8495C23.2898 30.6813 23.4955 30.1275 23.3663 29.9877C23.2898 29.9049 22.8812 29.7574 22.7072 29.5866H22.7046Z" fill="#BC8035" stroke="#BC8035" stroke-width="0.2"/>
</svg>
