<svg width="22" height="22" viewBox="0 0 22 22" fill="none" xmlns="http://www.w3.org/2000/svg">
<path d="M11 0.5C16.799 0.5 21.5 5.20101 21.5 11C21.5 16.799 16.799 21.5 11 21.5C5.20101 21.5 0.5 16.799 0.5 11C0.5 5.20101 5.20101 0.5 11 0.5Z" fill="#FEF9E9"/>
<path d="M11 0.5C16.799 0.5 21.5 5.20101 21.5 11C21.5 16.799 16.799 21.5 11 21.5C5.20101 21.5 0.5 16.799 0.5 11C0.5 5.20101 5.20101 0.5 11 0.5Z" stroke="#BC8035"/>
<path d="M17 10.134C17.6667 10.5189 17.6667 11.4811 17 11.866L8.75 16.6292C8.08333 17.0141 7.25 16.5329 7.25 15.7631L7.25 6.23686C7.25 5.46706 8.08333 4.98593 8.75 5.37083L17 10.134Z" fill="#BC8035"/>
</svg>
