<svg width="48" height="49" viewBox="0 0 48 49" fill="none" xmlns="http://www.w3.org/2000/svg">
<path d="M21.931 38.707H19.5862C19.0161 38.707 18.5287 38.5047 18.1241 38.1001C17.7195 37.6955 17.5172 37.2081 17.5172 36.638C17.5172 36.0679 17.7195 35.5805 18.1241 35.1759C18.5287 34.7713 19.0161 34.569 19.5862 34.569H21.931V29.6863C19.0437 29.1713 16.6667 27.7994 14.8 25.5704C12.9333 23.3418 12 20.7598 12 17.8242C12 14.5003 13.1678 11.6784 15.5034 9.35857C17.8391 7.03912 20.6713 5.87939 24 5.87939C27.3287 5.87939 30.1609 7.03912 32.4966 9.35857C34.8322 11.6784 36 14.5003 36 17.8242C36 20.7598 35.0667 23.3418 33.2 25.5704C31.3333 27.7994 28.9563 29.1713 26.069 29.6863V34.569H28.4138C28.9839 34.569 29.4713 34.7713 29.8759 35.1759C30.2805 35.5805 30.4828 36.0679 30.4828 36.638C30.4828 37.2081 30.2805 37.6955 29.8759 38.1001C29.4713 38.5047 28.9839 38.707 28.4138 38.707H26.069V41.0518C26.069 41.6219 25.8667 42.1093 25.4621 42.5139C25.0575 42.9185 24.5701 43.1208 24 43.1208C23.4299 43.1208 22.9425 42.9185 22.5379 42.5139C22.1333 42.1093 21.931 41.6219 21.931 41.0518V38.707ZM23.9983 25.7415C26.1696 25.7415 28.023 24.9742 29.5586 23.4397C31.0943 21.9048 31.8621 20.0519 31.8621 17.8811C31.8621 15.7098 31.0948 13.8564 29.5603 12.3208C28.0254 10.7851 26.1725 10.0173 24.0017 10.0173C21.8304 10.0173 19.977 10.7846 18.4414 12.3191C16.9057 13.854 16.1379 15.7069 16.1379 17.8777C16.1379 20.049 16.9052 21.9024 18.4397 23.438C19.9746 24.9736 21.8275 25.7415 23.9983 25.7415Z" fill="#BC8035"/>
</svg>
