<svg width="48" height="48" viewBox="0 0 48 48" fill="none" xmlns="http://www.w3.org/2000/svg">
<g clip-path="url(#clip0_2658_32967)">
<path d="M35.1849 28.6199C36.9149 28.5399 38.4449 28.8999 39.6449 29.3499C39.8749 28.4399 39.9949 27.4999 39.9949 26.5599C38.8949 26.5299 37.4849 26.6599 36.0349 27.2499C35.9149 27.2999 35.7849 27.3299 35.6549 27.3299C35.2649 27.3299 34.8849 27.0999 34.7349 26.7099C34.5249 26.1999 34.7649 25.6199 35.2749 25.3999C36.9249 24.7199 38.5249 24.5399 39.8249 24.5499C39.6349 23.3799 39.2649 22.2199 38.7249 21.0899C39.3349 18.5399 39.5049 15.8399 39.2149 13.2599C38.8849 10.3899 38.0049 8.84989 36.6049 8.65989C36.4849 8.65989 36.3649 8.63989 36.2249 8.63989C34.5049 8.63989 32.3549 10.0299 30.8449 11.1999C30.1849 11.7199 29.5049 12.3799 28.9049 12.9699L28.8049 13.0599C27.1749 12.5999 25.4849 12.3599 23.8049 12.3599C23.2449 12.3599 22.6849 12.3899 22.1349 12.4399C21.1549 12.5299 20.1549 12.7199 19.1449 12.9999C18.5849 12.4699 17.8849 11.7999 17.1049 11.1999C15.6049 10.0299 13.4449 8.63989 11.7249 8.63989C11.5949 8.63989 11.4649 8.64989 11.3449 8.65989C9.24488 8.93989 8.86488 12.1899 8.74488 13.2499C8.44488 15.8199 8.61488 18.5399 9.23488 21.1099C8.70488 22.2199 8.35488 23.3699 8.16488 24.5499C9.48488 24.5199 11.1449 24.6799 12.8749 25.3899C13.3849 25.5999 13.6249 26.1799 13.4149 26.6999C13.2549 27.0899 12.8849 27.3199 12.4849 27.3199C12.3549 27.3199 12.2249 27.2999 12.1049 27.2399C10.6049 26.6199 9.12488 26.5099 8.00488 26.5499C8.00488 26.9899 8.02488 27.4299 8.07488 27.8599C8.13488 28.3799 8.24488 28.8799 8.36488 29.3899C9.57488 28.9199 11.1549 28.5399 12.9549 28.6099C13.5049 28.6299 13.9349 29.0999 13.9149 29.6499C13.8949 30.1999 13.4249 30.6699 12.8749 30.6099C11.3649 30.5499 10.0349 30.8999 9.01488 31.2899C9.76488 32.9799 10.9149 34.4999 12.3849 35.7399C15.1149 38.0399 19.3349 39.3499 23.9749 39.3499C29.1849 39.3499 33.9049 37.6599 36.5949 34.8199C37.6249 33.7399 38.4149 32.5299 38.9849 31.2499C37.9849 30.8799 36.6949 30.5599 35.2649 30.6099C35.2549 30.6099 35.2349 30.6099 35.2249 30.6099C34.6949 30.6099 34.2449 30.1899 34.2249 29.6499C34.2049 29.0999 34.6349 28.6299 35.1849 28.6099V28.6199ZM13.9549 12.1899C13.4249 11.9499 12.9849 11.8399 12.6249 11.8399C11.5049 11.8399 11.2449 12.9699 11.0849 14.0299C10.9049 15.3399 10.8949 16.7399 11.0649 18.1999C10.8449 18.4999 10.6549 18.7699 10.4649 19.0199C10.4649 18.9299 10.4349 18.8399 10.4249 18.7399C10.3949 18.5399 10.3649 18.3399 10.3449 18.1499C10.1649 16.4299 10.2149 14.5199 10.4849 12.7699C10.8149 10.6099 11.3549 10.2799 11.5649 10.2399C11.6249 10.2299 11.6949 10.2199 11.7549 10.2199C12.4349 10.2199 13.4449 10.7799 13.8649 11.0199C14.9749 11.6399 16.0949 12.4699 17.3449 13.6199L16.4649 14.0299L16.4449 13.9999C15.6849 13.2099 14.7549 12.5399 13.9649 12.1899H13.9549ZM18.1549 28.6599C17.2149 28.6599 16.4449 27.7199 16.4449 26.5799C16.4449 25.4399 17.2149 24.4999 18.1549 24.4999C19.0949 24.4999 19.8649 25.4399 19.8649 26.5799C19.8649 27.7199 19.0949 28.6599 18.1549 28.6599ZM27.2849 31.4499C26.2749 32.2599 24.8749 32.1099 24.0149 31.1699C23.7649 31.3299 23.5849 31.5599 23.3149 31.6999C22.2649 32.2499 20.8749 31.9299 20.2549 30.9299C19.9949 30.5099 19.8649 29.8199 20.5049 29.7099C21.1049 29.5999 21.1449 30.1699 21.4049 30.4799C21.9149 31.0699 22.8649 30.8799 23.2149 30.2199C23.3049 30.0499 23.5149 29.4999 23.3849 29.3599C23.3049 29.2799 22.8949 29.1299 22.7249 28.9599C22.1549 28.3999 22.0049 27.2499 22.9649 26.9999C23.4749 26.8699 24.9449 26.8599 25.3849 27.1399C26.0849 27.5899 25.7249 28.6499 25.1749 29.0699C24.9849 29.2099 24.7549 29.2599 24.5849 29.4199C24.5449 30.4199 25.7749 31.3599 26.5849 30.5099C26.8749 30.2099 26.9849 29.3599 27.7249 29.7999C28.3549 30.1799 27.6949 31.1299 27.2949 31.4599L27.2849 31.4499ZM29.8349 28.6599C28.8949 28.6599 28.1249 27.7199 28.1249 26.5799C28.1249 25.4399 28.8949 24.4999 29.8349 24.4999C30.7749 24.4999 31.5449 25.4399 31.5449 26.5799C31.5449 27.7199 30.7749 28.6599 29.8349 28.6599ZM33.9949 12.1899C33.2149 12.5399 32.2849 13.2099 31.5249 13.9899C31.5049 13.9999 31.4949 14.0099 31.4949 14.0299L30.6049 13.6199C31.8649 12.4699 32.9749 11.6399 34.0849 11.0199C34.5449 10.7599 35.5149 10.2199 36.1949 10.2199C36.2649 10.2199 36.3249 10.2199 36.3849 10.2399C36.8349 10.3299 37.2449 11.2699 37.4649 12.7699C37.7349 14.5199 37.7849 16.4299 37.6149 18.1499C37.5949 18.3399 37.5649 18.5299 37.5349 18.7299C37.5149 18.8099 37.5049 18.8999 37.4949 18.9799C37.4449 18.9299 37.4049 18.8699 37.3649 18.8099C37.2549 18.6699 37.1549 18.5399 37.0549 18.4299L36.8849 18.1999C37.0649 16.7299 37.0549 15.3299 36.8649 14.0299C36.7149 12.9699 36.4549 11.8399 35.3249 11.8399C34.9649 11.8399 34.5349 11.9499 33.9949 12.1899Z" fill="#BC8035"/>
</g>
<defs>
<clipPath id="clip0_2658_32967">
<rect width="31.99" height="30.72" fill="white" transform="translate(8.00488 8.63989)"/>
</clipPath>
</defs>
</svg>
