<svg width="49" height="48" viewBox="0 0 49 48" fill="none" xmlns="http://www.w3.org/2000/svg">
<path d="M24.5 12.1257C25.5514 10.8762 26.7705 9.91618 28.1571 9.2457C29.5438 8.57523 31.0219 8.23999 32.5914 8.23999C35.2733 8.23999 37.5286 9.10856 39.3571 10.8457C41.1857 12.5828 42.161 14.7924 42.2829 17.4743C42.2981 17.9467 42.1381 18.3505 41.8029 18.6857C41.4676 19.0209 41.0638 19.1962 40.5914 19.2114C40.119 19.2267 39.719 19.0667 39.3914 18.7314C39.0638 18.3962 38.8924 17.9924 38.8771 17.52C38.7705 15.8133 38.1305 14.4114 36.9571 13.3143C35.7838 12.2171 34.3286 11.6686 32.5914 11.6686C31.3724 11.6686 30.2219 11.9809 29.14 12.6057C28.0581 13.2305 27.2048 14.0533 26.58 15.0743C26.321 15.4857 26.001 15.7905 25.62 15.9886C25.239 16.1867 24.8505 16.2857 24.4543 16.2857C24.0581 16.2857 23.6733 16.1867 23.3 15.9886C22.9267 15.7905 22.6333 15.4857 22.42 15.0743C21.7952 14.0533 20.9419 13.2305 19.86 12.6057C18.7781 11.9809 17.6276 11.6686 16.4086 11.6686C14.6714 11.6686 13.2162 12.2171 12.0429 13.3143C10.8695 14.4114 10.2295 15.8133 10.1229 17.52C10.1076 17.9924 9.93619 18.3962 9.60857 18.7314C9.28095 19.0667 8.88095 19.2267 8.40857 19.2114C7.93619 19.1962 7.53238 19.0209 7.19714 18.6857C6.8619 18.3505 6.7019 17.9467 6.71714 17.4743C6.83905 14.7924 7.81429 12.5828 9.64286 10.8457C11.4714 9.10856 13.7267 8.23999 16.4086 8.23999C17.9781 8.23999 19.4676 8.57523 20.8771 9.2457C22.2867 9.91618 23.4943 10.8762 24.5 12.1257ZM24.5 39.76C24.0886 39.76 23.6848 39.6876 23.2886 39.5429C22.8924 39.3981 22.5343 39.1733 22.2143 38.8686C20.8581 37.6495 19.6086 36.5067 18.4657 35.44C17.3229 34.3733 16.2638 33.36 15.2886 32.4C14.8771 31.9886 14.6981 31.5619 14.7514 31.12C14.8048 30.6781 14.9914 30.3048 15.3114 30C15.6314 29.6952 16.0162 29.52 16.4657 29.4743C16.9152 29.4286 17.3305 29.5886 17.7114 29.9543C18.6257 30.8686 19.639 31.8476 20.7514 32.8914C21.8638 33.9352 23.1133 35.0743 24.5 36.3086C25.8867 35.0743 27.1362 33.9352 28.2486 32.8914C29.361 31.8476 30.3743 30.8686 31.2886 29.9543C31.6695 29.5733 32.0848 29.4133 32.5343 29.4743C32.9838 29.5352 33.3686 29.7181 33.6886 30.0228C34.0086 30.3276 34.1876 30.7048 34.2257 31.1543C34.2638 31.6038 34.0771 32.0343 33.6657 32.4457C32.6905 33.3905 31.6352 34.3962 30.5 35.4628C29.3648 36.5295 28.1267 37.6648 26.7857 38.8686C26.4657 39.1733 26.1076 39.3981 25.7114 39.5429C25.3152 39.6876 24.9114 39.76 24.5 39.76ZM22.7629 31.3028C23.1286 31.3028 23.4448 31.1962 23.7114 30.9828C23.9781 30.7695 24.1724 30.4952 24.2943 30.16L26.8314 22.9143L28.5457 25.3143C28.6981 25.5428 28.9 25.7219 29.1514 25.8514C29.4029 25.9809 29.6657 26.0457 29.94 26.0457H42.7857C43.2581 26.0457 43.6619 25.8781 43.9971 25.5428C44.3324 25.2076 44.5 24.8038 44.5 24.3314C44.5 23.859 44.3324 23.4552 43.9971 23.12C43.6619 22.7848 43.2581 22.6171 42.7857 22.6171H30.9457L27.7686 18.1371C27.601 17.8781 27.38 17.6876 27.1057 17.5657C26.8314 17.4438 26.5419 17.3828 26.2371 17.3828C25.8714 17.3828 25.5552 17.4895 25.2886 17.7028C25.0219 17.9162 24.8276 18.1905 24.7057 18.5257L22.1914 25.8171L20.4543 23.3486C20.3019 23.12 20.1 22.9409 19.8486 22.8114C19.5971 22.6819 19.3343 22.6171 19.06 22.6171H6.21429C5.7419 22.6171 5.3381 22.7848 5.00286 23.12C4.66762 23.4552 4.5 23.859 4.5 24.3314C4.5 24.8038 4.66762 25.2076 5.00286 25.5428C5.3381 25.8781 5.7419 26.0457 6.21429 26.0457H18.0086L21.2086 30.5486C21.3762 30.8076 21.601 30.9981 21.8829 31.12C22.1648 31.2419 22.4581 31.3028 22.7629 31.3028Z" fill="#BC8035"/>
</svg>
