<svg width="49" height="48" viewBox="0 0 49 48" fill="none" xmlns="http://www.w3.org/2000/svg">
<path d="M11.5869 40C11.1296 40 10.7457 39.8492 10.4352 39.5475C10.1247 39.2462 9.96948 38.8726 9.96948 38.4269V30.1889C9.96948 29.335 10.2735 28.6041 10.8815 27.9961C11.4894 27.3881 12.2204 27.0841 13.0743 27.0841H13.2399V20.3777C13.2399 19.5239 13.5439 18.7929 14.1518 18.1849C14.7598 17.577 15.4908 17.273 16.3446 17.273H22.9268V14.934C22.4438 14.6028 22.054 14.213 21.7573 13.7646C21.4606 13.3161 21.3123 12.771 21.3123 12.1294C21.3123 11.7284 21.3916 11.334 21.5503 10.9462C21.709 10.5585 21.9471 10.2043 22.2644 9.88357L23.9617 8.22768C24.0031 8.18629 24.1799 8.11039 24.492 8C24.5439 8 24.7259 8.07589 25.038 8.22768L26.7283 9.88605C27.0504 10.2018 27.2907 10.5538 27.4494 10.9421C27.6081 11.3307 27.6875 11.7259 27.6875 12.1277C27.6875 12.7705 27.5391 13.3161 27.2424 13.7646C26.9458 14.213 26.5559 14.6028 26.073 14.934V17.273H32.6551C33.509 17.273 34.2399 17.577 34.8479 18.1849C35.4559 18.7929 35.7599 19.5239 35.7599 20.3777V27.0841H35.9255C36.7794 27.0841 37.5103 27.3881 38.1183 27.9961C38.7263 28.6041 39.0303 29.335 39.0303 30.1889V38.4269C39.0303 38.8726 38.8756 39.2462 38.5662 39.5475C38.2568 39.8492 37.8734 40 37.4158 40H11.5869ZM16.3446 27.0841H32.6551V20.3777H16.3446V27.0841ZM13.0743 36.8952H35.9255V30.1889H13.0743V36.8952Z" fill="#BC8035"/>
</svg>
