<svg width="48" height="49" viewBox="0 0 48 49" fill="none" xmlns="http://www.w3.org/2000/svg">
<path d="M28.2937 18.7944C28.6842 18.4038 29.3173 18.4038 29.7078 18.7944C30.0979 19.185 30.0979 19.818 29.7078 20.2085L25.4129 24.5034L29.7 28.7915C30.0901 29.182 30.0901 29.815 29.7 30.2055C29.3095 30.5961 28.6764 30.5961 28.2859 30.2055L23.9998 25.9175L19.7137 30.2055C19.3232 30.5961 18.69 30.5961 18.2996 30.2055C17.9095 29.815 17.9094 29.182 18.2996 28.7915L22.5857 24.5034L18.2918 20.2085C17.9014 19.8179 17.9015 19.185 18.2918 18.7944C18.6822 18.4038 19.3154 18.4038 19.7058 18.7944L23.9998 23.0893L28.2937 18.7944Z" fill="#BC8035"/>
</svg>
