<svg width="49" height="48" viewBox="0 0 49 48" fill="none" xmlns="http://www.w3.org/2000/svg">
<g clip-path="url(#clip0_2658_32906)">
<path d="M11.2474 37.1207C10.7512 37.1207 10.3271 36.9446 9.97496 36.5925C9.62284 36.2404 9.44678 35.8162 9.44678 35.3201C9.44678 34.8239 9.62284 34.3997 9.97496 34.0476C10.3271 33.6955 10.7512 33.5194 11.2474 33.5194H13.048V20.5068C13.048 17.8499 13.8523 15.4891 15.4609 13.4243C17.0695 11.3596 19.1542 9.99914 21.7151 9.34291V8.09447C21.7151 7.3262 21.9872 6.67397 22.5314 6.13778C23.0756 5.60159 23.7318 5.3335 24.5001 5.3335C25.2684 5.3335 25.9246 5.60159 26.4688 6.13778C27.013 6.67397 27.2851 7.3262 27.2851 8.09447V9.34291C29.846 9.99914 31.9307 11.3596 33.5393 13.4243C35.1478 15.4891 35.9521 17.8499 35.9521 20.5068V33.5194H37.7528C38.2489 33.5194 38.6731 33.6955 39.0252 34.0476C39.3773 34.3997 39.5534 34.8239 39.5534 35.3201C39.5534 35.8162 39.3773 36.2404 39.0252 36.5925C38.6731 36.9446 38.2489 37.1207 37.7528 37.1207H11.2474ZM24.5001 42.6667C23.4597 42.6667 22.5754 42.3025 21.8471 41.5743C21.1189 40.846 20.7548 39.9617 20.7548 38.9213H28.2454C28.2454 39.9617 27.8813 40.846 27.153 41.5743C26.4248 42.3025 25.5405 42.6667 24.5001 42.6667Z" fill="#BC8035"/>
</g>
<defs>
<clipPath id="clip0_2658_32906">
<rect width="32" height="37.3332" fill="white" transform="translate(8.5 5.3335)"/>
</clipPath>
</defs>
</svg>
