<svg width="48" height="49" viewBox="0 0 48 49" fill="none" xmlns="http://www.w3.org/2000/svg">
<path d="M20.0851 32.7127C16.7092 32.7127 13.8511 31.5425 11.5106 29.2021C9.17021 26.8616 8 24.0035 8 20.6276C8 17.2517 9.17021 14.3935 11.5106 12.0531C13.8511 9.71269 16.7092 8.54248 20.0851 8.54248C23.461 8.54248 26.3191 9.71269 28.6596 12.0531C31 14.3935 32.1702 17.2517 32.1702 20.6276C32.1702 21.9042 31.9929 23.124 31.6383 24.2872C31.2837 25.4503 30.766 26.4857 30.0851 27.3935L39.3617 36.6701C39.7872 37.0957 40 37.6205 40 38.2446C40 38.8687 39.7872 39.3935 39.3617 39.8191C38.9362 40.2446 38.4113 40.4574 37.7872 40.4574C37.1631 40.4574 36.6383 40.2446 36.2128 39.8191L26.9787 30.585C26.1277 31.2375 25.0851 31.7552 23.8511 32.1382C22.617 32.5212 21.3617 32.7127 20.0851 32.7127ZM20.0851 28.2021C22.2128 28.2021 24.0071 27.4716 25.4681 26.0106C26.9291 24.5496 27.6596 22.7552 27.6596 20.6276C27.6596 18.4999 26.9291 16.7056 25.4681 15.2446C24.0071 13.7836 22.2128 13.0531 20.0851 13.0531C17.9574 13.0531 16.1631 13.7836 14.7021 15.2446C13.2411 16.7056 12.5106 18.4999 12.5106 20.6276C12.5106 22.7552 13.2411 24.5496 14.7021 26.0106C16.1631 27.4716 17.9574 28.2021 20.0851 28.2021Z" fill="#BC8035"/>
</svg>
