<svg width="49" height="49" viewBox="0 0 49 49" fill="none" xmlns="http://www.w3.org/2000/svg">
<path d="M15.2338 40.5C14.424 40.5 13.7307 40.2117 13.154 39.635C12.5774 39.0584 12.2891 38.3651 12.2891 37.5552V22.0853C12.2891 21.2754 12.5774 20.5821 13.154 20.0055C13.7307 19.4288 14.424 19.1405 15.2338 19.1405H16.9222V16.0862C16.9222 13.9735 17.6584 12.181 19.1308 10.7086C20.6032 9.2362 22.3929 8.5 24.5001 8.5C26.6073 8.5 28.397 9.2362 29.8694 10.7086C31.3418 12.181 32.078 13.9735 32.078 16.0862V19.1405H33.7664C34.5762 19.1405 35.2695 19.4288 35.8462 20.0055C36.4228 20.5821 36.7111 21.2754 36.7111 22.0853V37.5552C36.7111 38.3651 36.4228 39.0584 35.8462 39.635C35.2695 40.2117 34.5762 40.5 33.7664 40.5H15.2338ZM15.2338 37.5552H33.7664V22.0853H15.2338V37.5552ZM24.5001 32.8436C25.3315 32.8436 26.0432 32.5475 26.6353 31.9554C27.2274 31.3633 27.5234 30.6516 27.5234 29.8202C27.5234 28.9889 27.2274 28.2772 26.6353 27.6851C26.0432 27.093 25.3315 26.7969 24.5001 26.7969C23.6688 26.7969 22.957 27.093 22.3649 27.6851C21.7728 28.2772 21.4768 28.9889 21.4768 29.8202C21.4768 30.6516 21.7728 31.3633 22.3649 31.9554C22.957 32.5475 23.6688 32.8436 24.5001 32.8436ZM19.867 19.1405H29.1332V16.072C29.1332 14.7933 28.6833 13.7025 27.7833 12.7994C26.8834 11.8963 25.7906 11.4448 24.5048 11.4448C23.2191 11.4448 22.1246 11.8953 21.2216 12.7962C20.3185 13.697 19.867 14.7908 19.867 16.0779V19.1405Z" fill="#BC8035"/>
</svg>
