<svg width="48" height="48" viewBox="0 0 48 48" fill="none" xmlns="http://www.w3.org/2000/svg">
<path d="M24.0024 18.0034C24.5547 18.0034 25.0024 18.4511 25.0024 19.0034V22.9985H28.9966C29.5488 22.9987 29.9966 23.4463 29.9966 23.9985C29.9966 24.5507 29.5488 24.9984 28.9966 24.9985H25.0024V28.9966C25.0024 29.5489 24.5547 29.9966 24.0024 29.9966C23.4503 29.9964 23.0024 29.5488 23.0024 28.9966V24.9985H19.0034C18.4511 24.9985 18.0034 24.5508 18.0034 23.9985C18.0034 23.4463 18.4511 22.9985 19.0034 22.9985H23.0024V19.0034C23.0024 18.4512 23.4503 18.0036 24.0024 18.0034Z" fill="#BC8035"/>
</svg>
