<svg width="49" height="49" viewBox="0 0 49 49" fill="none" xmlns="http://www.w3.org/2000/svg">
<path d="M24.5 10C32.5081 10 39 16.4919 39 24.5C39 32.5081 32.5081 39 24.5 39C16.4919 39 10 32.5081 10 24.5C10 16.4919 16.4919 10 24.5 10Z" stroke="#BC8035" stroke-width="3"/>
<path d="M18.4617 24.03C17.9168 24.03 17.4536 23.8393 17.0722 23.4578C16.6907 23.0764 16.5 22.6132 16.5 22.0683C16.5 21.5234 16.6907 21.0602 17.0722 20.6788C17.4536 20.2973 17.9168 20.1066 18.4617 20.1066C19.0066 20.1066 19.4698 20.2973 19.8512 20.6788C20.2327 21.0602 20.4234 21.5234 20.4234 22.0683C20.4234 22.6132 20.2327 23.0764 19.8512 23.4578C19.4698 23.8393 19.0066 24.03 18.4617 24.03ZM22.0785 20.8218C21.5336 20.8218 21.0705 20.6311 20.689 20.2497C20.3076 19.8682 20.1169 19.405 20.1169 18.8601C20.1169 18.3152 20.3076 17.852 20.689 17.4706C21.0705 17.0892 21.5336 16.8984 22.0785 16.8984C22.6235 16.8984 23.0866 17.0892 23.4681 17.4706C23.8495 17.852 24.0402 18.3152 24.0402 18.8601C24.0402 19.405 23.8495 19.8682 23.4681 20.2497C23.0866 20.6311 22.6235 20.8218 22.0785 20.8218ZM26.9215 20.8218C26.3765 20.8218 25.9134 20.6311 25.5319 20.2497C25.1505 19.8682 24.9598 19.405 24.9598 18.8601C24.9598 18.3152 25.1505 17.852 25.5319 17.4706C25.9134 17.0892 26.3765 16.8984 26.9215 16.8984C27.4664 16.8984 27.9295 17.0892 28.311 17.4706C28.6924 17.852 28.8831 18.3152 28.8831 18.8601C28.8831 19.405 28.6924 19.8682 28.311 20.2497C27.9295 20.6311 27.4664 20.8218 26.9215 20.8218ZM30.5383 24.03C29.9934 24.03 29.5302 23.8393 29.1488 23.4578C28.7673 23.0764 28.5766 22.6132 28.5766 22.0683C28.5766 21.5234 28.7673 21.0602 29.1488 20.6788C29.5302 20.2973 29.9934 20.1066 30.5383 20.1066C31.0832 20.1066 31.5464 20.2973 31.9278 20.6788C32.3093 21.0602 32.5 21.5234 32.5 22.0683C32.5 22.6132 32.3093 23.0764 31.9278 23.4578C31.5464 23.8393 31.0832 24.03 30.5383 24.03ZM20.2033 32.1015C19.6008 32.1015 19.0986 31.8746 18.6967 31.4208C18.2948 30.9671 18.0939 30.4311 18.0939 29.8129C18.0939 29.1113 18.3289 28.5 18.7989 27.9789C19.2688 27.4578 19.7422 26.9439 20.219 26.4371C20.6141 26.0238 20.9547 25.5738 21.2407 25.087C21.5268 24.6003 21.8606 24.139 22.242 23.703C22.5349 23.3693 22.8704 23.0883 23.2484 22.8601C23.6264 22.6319 24.0406 22.5178 24.491 22.5178C24.9412 22.5178 25.3584 22.6268 25.7426 22.8448C26.1266 23.0628 26.4651 23.342 26.758 23.6826C27.1394 24.1117 27.4749 24.5715 27.7644 25.0619C28.0539 25.5523 28.3931 26.0124 28.782 26.442C29.2513 26.9523 29.7226 27.4663 30.196 27.984C30.6694 28.5017 30.9061 29.1113 30.9061 29.8129C30.9061 30.4311 30.7052 30.9671 30.3033 31.4208C29.9014 31.8746 29.3999 32.1015 28.7987 32.1015C28.0773 32.1015 27.3625 32.0402 26.6544 31.9176C25.9464 31.795 25.2317 31.7337 24.5102 31.7337C23.7814 31.7337 23.0621 31.795 22.3524 31.9176C21.6427 32.0402 20.9264 32.1015 20.2033 32.1015Z" fill="#BC8035"/>
</svg>
