<svg width="48" height="48" viewBox="0 0 48 48" fill="none" xmlns="http://www.w3.org/2000/svg">
<path d="M37.5821 6.85693C38.9376 6.85696 40 7.94336 40 9.32956V38.67C40 40.0564 38.9381 41.1426 37.5821 41.1426H13.5622C12.2065 41.1426 11.144 40.0564 11.144 38.67V36.6926H9.20911C8.54132 36.6926 8.00002 36.1391 8 35.4564C8 34.7734 8.54131 34.2199 9.20911 34.2199H11.144V30.9646H9.20911C8.54131 30.9646 8 30.411 8 29.7282C8.00004 29.0454 8.54134 28.492 9.20911 28.492H11.144V25.2365H9.20911C8.54131 25.2365 8 24.6829 8 24.0001C8.00007 23.3173 8.54135 22.7639 9.20911 22.7639H11.144V19.5084H9.20911C8.54132 19.5084 8.00001 18.9551 8 18.2722C8 17.5894 8.54131 17.0358 9.20911 17.0358H11.144V13.7806H9.20911C8.54131 13.7806 8 13.2269 8 12.5441C8.00005 11.8613 8.54134 11.3079 9.20911 11.3079H11.144V9.32956C11.144 7.94334 12.2065 6.85693 13.5622 6.85693H37.5821ZM13.5435 9.33116L13.5453 12.3429C13.5558 12.4084 13.5617 12.4756 13.5617 12.5441C13.5617 12.6121 13.5559 12.6787 13.5456 12.7437L13.549 18.095C13.5571 18.1529 13.5617 18.212 13.5617 18.2722C13.5617 18.3316 13.5571 18.3899 13.5492 18.4471L13.5526 23.8523C13.5583 23.9008 13.5617 23.95 13.5617 24.0001C13.5617 24.0495 13.5584 24.0983 13.5529 24.1462L13.5562 29.6149C13.5596 29.6523 13.5617 29.69 13.5617 29.7282C13.5617 29.7657 13.5597 29.8028 13.5565 29.8395L13.5599 35.3922C13.561 35.4134 13.5617 35.4349 13.5617 35.4564C13.5617 35.4765 13.5611 35.4967 13.5602 35.5168L13.5622 38.67H17.2292V9.32956H13.5622C13.5493 9.32956 13.5435 9.33116 13.5435 9.33116ZM25.2359 18.5935C24.3215 18.5407 23.4042 18.8729 22.7292 19.6059C21.3781 21.0759 21.5195 23.5429 22.9651 25.1145L23.4268 25.616L27.6232 30.1764C27.7075 30.2677 27.8218 30.3189 27.9409 30.3189C28.0599 30.3189 28.1743 30.2677 28.2586 30.1764L32.4531 25.616L32.9151 25.1145C34.3607 23.5429 34.5009 21.076 33.149 19.607C31.7979 18.138 29.5306 18.2944 28.0859 19.865L27.9401 20.0234L27.7943 19.865C27.0715 19.0782 26.1514 18.6463 25.2359 18.5935Z" fill="#BC8035"/>
</svg>
