<svg width="48" height="48" viewBox="0 0 48 48" fill="none" xmlns="http://www.w3.org/2000/svg">
<path d="M24 32.8206C26.0103 32.8206 27.7128 32.1232 29.1077 30.7283C30.5026 29.3334 31.2 27.6309 31.2 25.6206C31.2 23.6103 30.5026 21.9078 29.1077 20.5129C27.7128 19.118 26.0103 18.4206 24 18.4206C21.9897 18.4206 20.2872 19.118 18.8923 20.5129C17.4974 21.9078 16.8 23.6103 16.8 25.6206C16.8 27.6309 17.4974 29.3334 18.8923 30.7283C20.2872 32.1232 21.9897 32.8206 24 32.8206ZM23.9918 29.7437C22.8349 29.7437 21.8598 29.3471 21.0667 28.5539C20.2735 27.7608 19.8769 26.7857 19.8769 25.6288C19.8769 24.4722 20.2735 23.4944 21.0667 22.6955C21.8598 21.8968 22.8349 21.4975 23.9918 21.4975C25.1484 21.4975 26.1262 21.8968 26.9251 22.6955C27.7238 23.4944 28.1231 24.4722 28.1231 25.6288C28.1231 26.7857 27.7238 27.7608 26.9251 28.5539C26.1262 29.3471 25.1484 29.7437 23.9918 29.7437ZM11.0769 38.3591C10.2307 38.3591 9.50632 38.0578 8.90379 37.4553C8.30126 36.8527 8 36.1284 8 35.2821V15.9796C8 15.1334 8.30126 14.409 8.90379 13.8064C9.50632 13.2039 10.2307 12.9027 11.0769 12.9027H16.2462L18.2769 10.6668C18.5625 10.3511 18.9064 10.1013 19.3087 9.91722C19.711 9.73315 20.1329 9.64111 20.5744 9.64111H27.4256C27.8671 9.64111 28.289 9.73315 28.6913 9.91722C29.0936 10.1013 29.4375 10.3511 29.7231 10.6668L31.7538 12.9027H36.9231C37.7693 12.9027 38.4937 13.2039 39.0962 13.8064C39.6987 14.409 40 15.1334 40 15.9796V35.2821C40 36.1284 39.6987 36.8527 39.0962 37.4553C38.4937 38.0578 37.7693 38.3591 36.9231 38.3591H11.0769Z" fill="#BC8035"/>
</svg>
