<svg width="49" height="49" viewBox="0 0 49 49" fill="none" xmlns="http://www.w3.org/2000/svg">
<path d="M14.6333 32.8487C16.0556 31.7957 17.5906 30.9752 19.2385 30.3872C20.8863 29.7991 22.6402 29.5051 24.5 29.5051C26.3598 29.5051 28.1137 29.7991 29.7615 30.3872C31.4094 30.9752 32.9444 31.7957 34.3667 32.8487C35.365 31.6863 36.1239 30.4024 36.6436 28.9968C37.1632 27.5916 37.4231 26.0917 37.4231 24.4971C37.4231 20.9025 36.1684 17.8504 33.659 15.341C31.1496 12.8316 28.0966 11.5769 24.5 11.5769C20.9034 11.5769 17.8504 12.8316 15.341 15.341C12.8316 17.8504 11.5769 20.9025 11.5769 24.4971C11.5769 26.0917 11.8368 27.5916 12.3564 28.9968C12.8761 30.4024 13.635 31.6863 14.6333 32.8487ZM24.5045 26.059C22.9152 26.059 21.5735 25.5135 20.4795 24.4225C19.3855 23.3315 18.8385 21.9913 18.8385 20.4019C18.8385 18.8126 19.384 17.4709 20.475 16.3769C21.566 15.2829 22.9062 14.7359 24.4955 14.7359C26.0848 14.7359 27.4265 15.2814 28.5205 16.3724C29.6145 17.4634 30.1615 18.8036 30.1615 20.3929C30.1615 21.9823 29.616 23.3239 28.525 24.4179C27.434 25.512 26.0938 26.059 24.5045 26.059ZM24.5 40.5C22.2871 40.5 20.2075 40.0794 18.2612 39.2381C16.3152 38.3965 14.6224 37.2546 13.1827 35.8124C11.7429 34.3699 10.6026 32.6765 9.76154 30.7322C8.92051 28.7881 8.5 26.7107 8.5 24.5C8.5 22.2871 8.92065 20.2075 9.76195 18.2612C10.6035 16.3152 11.7454 14.6224 13.1876 13.1827C14.6301 11.7429 16.3235 10.6026 18.2678 9.76154C20.2119 8.92051 22.2893 8.5 24.5 8.5C26.7129 8.5 28.7925 8.92065 30.7388 9.76195C32.6848 10.6035 34.3776 11.7454 35.8173 13.1876C37.2571 14.6301 38.3974 16.3235 39.2385 18.2678C40.0795 20.2119 40.5 22.2893 40.5 24.5C40.5 26.7129 40.0794 28.7925 39.2381 30.7388C38.3965 32.6848 37.2546 34.3776 35.8124 35.8173C34.3699 37.2571 32.6765 38.3974 30.7322 39.2385C28.7881 40.0795 26.7107 40.5 24.5 40.5Z" fill="#BC8035"/>
</svg>
