<svg width="49" height="49" viewBox="0 0 49 49" fill="none" xmlns="http://www.w3.org/2000/svg">
<path d="M25.8766 10.2833H23.1347V9.83751C23.1347 9.07959 23.7288 8.5 24.5056 8.5C25.2825 8.5 25.8766 9.07959 25.8766 9.83751V10.2833ZM38.2039 33.2433H10.785V18.0849H38.2039V33.2433ZM9.88219 14.7417H39.1291C39.9059 14.7417 40.5 14.1175 40.5 13.4042C40.5 12.6463 39.9059 12.0667 39.1291 12.0667H9.88219C9.10532 12.0667 8.51125 12.6463 8.51125 13.4042C8.51125 14.1175 9.10532 14.7417 9.88219 14.7417ZM39.1178 36.5H9.87095C9.09408 36.5 8.5 37.0796 8.5 37.8375C8.5 38.5508 9.09408 39.175 9.87095 39.175H39.1178C39.8947 39.175 40.4888 38.5508 40.4888 37.8375C40.4888 37.0796 39.8947 36.5 39.1178 36.5Z" fill="#BC8035" stroke="#BC8035"/>
<path fill-rule="evenodd" clip-rule="evenodd" d="M33.9853 26.166C33.9853 25.9431 33.8939 25.6756 33.7111 25.5419C31.8375 23.8031 29.2327 22.7777 26.4908 22.7777C24.0688 22.7777 21.7382 23.5802 19.9102 25.0069L16.8485 22.3764C16.4829 22.0643 15.8888 22.1089 15.5689 22.4656C15.249 22.8223 15.2947 23.4018 15.6603 23.7139L18.5393 26.166L15.6603 28.6181C15.2947 28.9302 15.249 29.5098 15.5689 29.8665C15.7517 30.0894 16.0259 30.1786 16.2544 30.1786C16.4829 30.1786 16.6657 30.0894 16.8485 29.9556L19.9102 27.3252C21.6925 28.7519 24.0688 29.5544 26.4908 29.5544C29.187 29.5544 31.8375 28.5736 33.7111 26.7902C33.8939 26.6565 33.9853 26.389 33.9853 26.166ZM26.5365 27.771C24.6171 27.771 22.8349 27.1915 21.3726 26.166C22.7892 25.1406 24.6171 24.561 26.5365 24.561C28.4558 24.561 30.238 25.1406 31.7004 26.166C30.238 27.1915 28.4101 27.771 26.5365 27.771Z" fill="white"/>
</svg>
