<svg width="49" height="49" viewBox="0 0 49 49" fill="none" xmlns="http://www.w3.org/2000/svg">
<path d="M12.9941 37.5552H31.5266V22.0853H12.9941V37.5552ZM22.2604 32.8436C23.0917 32.8436 23.8034 32.5475 24.3955 31.9554C24.9876 31.3633 25.2837 30.6516 25.2837 29.8202C25.2837 28.9889 24.9876 28.2772 24.3955 27.6851C23.8034 27.093 23.0917 26.7969 22.2604 26.7969C21.429 26.7969 20.7173 27.093 20.1252 27.6851C19.5331 28.2772 19.237 28.9889 19.237 29.8202C19.237 30.6516 19.5331 31.3633 20.1252 31.9554C20.7173 32.5475 21.429 32.8436 22.2604 32.8436ZM12.9941 40.5C12.1842 40.5 11.491 40.2117 10.9143 39.635C10.3376 39.0584 10.0493 38.3651 10.0493 37.5552V22.0853C10.0493 21.2754 10.3376 20.5821 10.9143 20.0055C11.491 19.4288 12.1842 19.1405 12.9941 19.1405H23.9487V16.0862C23.9487 13.9735 24.6849 12.181 26.1573 10.7086C27.6297 9.2362 29.4195 8.5 31.5266 8.5C33.3458 8.5 34.9295 9.04969 36.2775 10.1491C37.6256 11.2485 38.5025 12.6358 38.9082 14.311C39.0129 14.7168 38.9244 15.1127 38.6428 15.4988C38.3609 15.8849 38.024 16.0779 37.6321 16.0779C37.2157 16.0779 36.8726 15.9863 36.603 15.8031C36.3337 15.6198 36.1401 15.3319 36.0223 14.9393C35.7606 13.9446 35.2194 13.1135 34.3988 12.446C33.5782 11.7785 32.6208 11.4448 31.5266 11.4448C30.2396 11.4448 29.1457 11.8953 28.2449 12.7962C27.344 13.697 26.8935 14.7908 26.8935 16.0779V19.1405H31.5266C32.3365 19.1405 33.0298 19.4288 33.6064 20.0055C34.1831 20.5821 34.4714 21.2754 34.4714 22.0853V37.5552C34.4714 38.3651 34.1831 39.0584 33.6064 39.635C33.0298 40.2117 32.3365 40.5 31.5266 40.5H12.9941Z" fill="#BC8035"/>
</svg>
