<svg width="49" height="49" viewBox="0 0 49 49" fill="none" xmlns="http://www.w3.org/2000/svg">
<path d="M17.692 9.28736L21.2194 8.07796L20.917 7.17092C20.7155 6.667 20.4131 6.26387 20.01 6.06231C19.6069 5.86074 19.1029 5.86074 18.599 6.06231C17.5912 6.36466 17.0873 7.47327 17.3896 8.38031L17.692 9.28736Z" fill="#BC8035"/>
<path d="M6.90804 17.6522L34.8249 8.07779C35.8327 7.77544 36.3366 6.66683 36.0343 5.75979C35.8327 5.25587 35.5304 4.85274 35.1272 4.65117C34.7241 4.44961 34.2202 4.44961 33.7163 4.65117L5.79943 14.2255C5.29552 14.4271 4.89239 14.7295 4.69082 15.1326C4.48926 15.5357 4.38847 16.0396 4.69082 16.5435C4.89239 17.0475 5.19474 17.3498 5.59787 17.5514C5.90022 17.6522 6.10178 17.7529 6.40413 17.7529C6.70648 17.7529 6.80726 17.7529 7.00883 17.6522H6.90804Z" fill="#BC8035"/>
<path d="M36.5381 19.0635H7.91577V35.3903H36.5381V19.0635Z" fill="#BC8035"/>
<path d="M36.9416 37.6074H7.51302C6.50519 37.6074 5.59814 38.4137 5.59814 39.4215C5.59814 40.4293 6.40441 41.2356 7.51302 41.2356H36.9416C37.9494 41.2356 38.8565 40.4293 38.8565 39.4215C38.8565 38.4137 38.0502 37.6074 36.9416 37.6074Z" fill="#BC8035"/>
<path fill-rule="evenodd" clip-rule="evenodd" d="M31.8014 27.7301C31.8014 27.5285 31.8014 27.2262 31.4991 27.1254C29.5842 25.4121 26.9638 24.3035 24.2427 24.3035C21.5216 24.3035 19.4051 25.1097 17.591 26.5207L14.4668 23.9003C14.0636 23.598 13.4589 23.598 13.1566 23.9003C12.8542 24.3035 12.8542 24.8074 13.1566 25.1097L16.0793 27.6293L13.1566 30.1489C12.7535 30.4512 12.7535 31.0559 13.1566 31.3583C13.3582 31.5598 13.6605 31.6606 13.8621 31.6606C14.0636 31.6606 14.2652 31.6606 14.4668 31.4591L17.591 28.8387C19.4051 30.2497 21.8239 31.0559 24.2427 31.0559C26.6615 31.0559 29.5842 30.0481 31.4991 28.234C31.7006 28.1332 31.8014 27.8309 31.8014 27.6293V27.7301ZM24.3435 29.3426C22.4286 29.3426 20.6145 28.7379 19.1028 27.7301C20.5137 26.7223 22.3278 26.1176 24.3435 26.1176C26.3591 26.1176 28.0725 26.7223 29.5842 27.7301C28.0725 28.7379 26.2584 29.3426 24.3435 29.3426Z" fill="white"/>
<path d="M32.2045 15.2333C33.1508 15.2333 33.9178 14.4662 33.9178 13.5199C33.9178 12.5737 33.1508 11.8066 32.2045 11.8066C31.2583 11.8066 30.4912 12.5737 30.4912 13.5199C30.4912 14.4662 31.2583 15.2333 32.2045 15.2333Z" fill="#BC8035"/>
<path d="M32.2045 15.7372C30.9951 15.7372 29.9873 14.7293 29.9873 13.52C29.9873 12.3106 30.9951 11.3027 32.2045 11.3027C33.4139 11.3027 34.4218 12.3106 34.4218 13.52C34.4218 14.7293 33.4139 15.7372 32.2045 15.7372ZM32.2045 12.3106C31.499 12.3106 30.9951 12.8145 30.9951 13.52C30.9951 14.2254 31.499 14.7293 32.2045 14.7293C32.91 14.7293 33.4139 14.2254 33.4139 13.52C33.4139 12.8145 32.91 12.3106 32.2045 12.3106Z" fill="#BC8035"/>
<path d="M42.8876 8.88376C42.1821 9.08532 42.0814 9.28689 41.779 9.99237C41.5775 9.28689 41.3759 9.18611 40.6704 8.88376C41.3759 8.68219 41.4767 8.48063 41.779 7.77515C41.9806 8.48063 42.1821 8.58141 42.8876 8.88376Z" fill="#BC8035"/>
<path d="M41.779 11.6049L41.2751 10.0931C41.0735 9.58921 41.0735 9.48843 40.5696 9.38765L39.0579 8.88373L40.5696 8.37982C41.0735 8.17825 41.1743 8.17825 41.2751 7.67434L41.779 6.1626L42.2829 7.67434C42.4845 8.17825 42.4845 8.27904 42.9884 8.37982L44.5001 8.88373L42.9884 9.38765C42.4845 9.58921 42.3837 9.58921 42.2829 10.0931L41.779 11.6049Z" fill="#BC8035"/>
<path d="M29.1808 18.4582C28.4754 18.6598 28.3746 18.8614 28.0722 19.5668C27.8707 18.8614 27.6691 18.7606 26.9636 18.4582C27.6691 18.2567 27.7699 18.0551 28.0722 17.3496C28.2738 18.0551 28.4754 18.1559 29.1808 18.4582Z" fill="#BC8035"/>
<path d="M28.0722 21.1796L27.5683 19.6678C27.3667 19.1639 27.3667 19.0631 26.8628 18.9624L25.3511 18.4584L26.8628 17.9545C27.3667 17.753 27.4675 17.753 27.5683 17.249L28.0722 15.7373L28.5761 17.249C28.7777 17.753 28.7777 17.8537 29.2816 17.9545L30.7933 18.4584L29.2816 18.9624C28.7777 19.1639 28.6769 19.1639 28.5761 19.6678L28.0722 21.1796Z" fill="#BC8035"/>
<path d="M39.36 17.7528C40.3063 17.7528 41.0733 16.9857 41.0733 16.0395C41.0733 15.0932 40.3063 14.3262 39.36 14.3262C38.4138 14.3262 37.6467 15.0932 37.6467 16.0395C37.6467 16.9857 38.4138 17.7528 39.36 17.7528Z" fill="#BC8035"/>
<path d="M39.36 18.2567C38.1506 18.2567 37.1428 17.2489 37.1428 16.0395C37.1428 14.8301 38.1506 13.8223 39.36 13.8223C40.5694 13.8223 41.5773 14.8301 41.5773 16.0395C41.5773 17.2489 40.5694 18.2567 39.36 18.2567ZM39.36 14.8301C38.6546 14.8301 38.1507 15.334 38.1507 16.0395C38.1507 16.745 38.6546 17.2489 39.36 17.2489C40.0655 17.2489 40.5694 16.745 40.5694 16.0395C40.5694 15.334 40.0655 14.8301 39.36 14.8301Z" fill="#BC8035"/>
<path d="M20.3122 19.4657C21.2584 19.4657 22.0255 18.6986 22.0255 17.7524C22.0255 16.8061 21.2584 16.0391 20.3122 16.0391C19.366 16.0391 18.5989 16.8061 18.5989 17.7524C18.5989 18.6986 19.366 19.4657 20.3122 19.4657Z" fill="#BC8035"/>
<path d="M20.3122 19.9696C19.1028 19.9696 18.095 18.9618 18.095 17.7524C18.095 16.543 19.1028 15.5352 20.3122 15.5352C21.5216 15.5352 22.5294 16.543 22.5294 17.7524C22.5294 18.9618 21.5216 19.9696 20.3122 19.9696ZM20.3122 16.543C19.6067 16.543 19.1028 17.0469 19.1028 17.7524C19.1028 18.4579 19.6067 18.9618 20.3122 18.9618C21.0177 18.9618 21.5216 18.4579 21.5216 17.7524C21.5216 17.0469 21.0177 16.543 20.3122 16.543Z" fill="#BC8035"/>
</svg>
