<svg width="49" height="48" viewBox="0 0 49 48" fill="none" xmlns="http://www.w3.org/2000/svg">
<g clip-path="url(#clip0_2658_32913)">
<path d="M12.8024 40.5713C11.9282 40.5713 11.1799 40.2601 10.5575 39.6376C9.93501 39.0152 9.62378 38.2669 9.62378 37.3927V13.9977C9.62378 13.1235 9.93501 12.3752 10.5575 11.7527C11.1799 11.1303 11.9282 10.819 12.8024 10.819H14.7096V9.0178C14.7096 8.57985 14.865 8.20547 15.1758 7.89467C15.4866 7.58387 15.861 7.42847 16.299 7.42847C16.7369 7.42847 17.1113 7.58387 17.4221 7.89467C17.7329 8.20547 17.8883 8.57985 17.8883 9.0178V10.819H31.1115V9.0178C31.1115 8.57985 31.2669 8.20547 31.5777 7.89467C31.8885 7.58387 32.2629 7.42847 32.7009 7.42847C33.1388 7.42847 33.5132 7.58387 33.824 7.89467C34.1348 8.20547 34.2902 8.57985 34.2902 9.0178V10.819H36.1974C37.0716 10.819 37.8199 11.1303 38.4424 11.7527C39.0648 12.3752 39.3761 13.1235 39.3761 13.9977V37.3927C39.3761 38.2669 39.0648 39.0152 38.4424 39.6376C37.8199 40.2601 37.0716 40.5713 36.1974 40.5713H12.8024ZM12.8024 37.3927H36.1974V20.7365H12.8024V37.3927Z" fill="#BC8035"/>
<path d="M18.0297 33.4285V31.9885H19.9497V26.3845H18.3297V25.2805C18.7777 25.2005 19.1617 25.1045 19.4817 24.9925C19.8097 24.8725 20.1137 24.7205 20.3937 24.5365H21.7017V31.9885H23.3697V33.4285H18.0297ZM27.1838 33.5965C26.6318 33.5965 26.1518 33.4965 25.7438 33.2965C25.3438 33.0965 25.0118 32.8605 24.7478 32.5885L25.6838 31.5205C25.8438 31.7045 26.0518 31.8565 26.3078 31.9765C26.5638 32.0965 26.8238 32.1565 27.0878 32.1565C27.3438 32.1565 27.5878 32.1005 27.8198 31.9885C28.0518 31.8685 28.2518 31.6805 28.4198 31.4245C28.5958 31.1605 28.7318 30.8125 28.8278 30.3805C28.9318 29.9485 28.9838 29.4165 28.9838 28.7845C28.9838 28.0245 28.9118 27.4205 28.7678 26.9725C28.6318 26.5245 28.4478 26.2045 28.2158 26.0125C27.9838 25.8125 27.7198 25.7125 27.4238 25.7125C27.2078 25.7125 27.0078 25.7725 26.8238 25.8925C26.6398 26.0125 26.4918 26.1925 26.3798 26.4325C26.2758 26.6725 26.2238 26.9765 26.2238 27.3445C26.2238 27.6885 26.2758 27.9765 26.3798 28.2085C26.4838 28.4325 26.6278 28.6005 26.8118 28.7125C27.0038 28.8245 27.2278 28.8805 27.4838 28.8805C27.7318 28.8805 27.9878 28.8045 28.2518 28.6525C28.5158 28.5005 28.7558 28.2445 28.9718 27.8845L29.0558 29.0725C28.9038 29.2885 28.7158 29.4765 28.4918 29.6365C28.2758 29.7965 28.0518 29.9205 27.8198 30.0085C27.5878 30.0965 27.3638 30.1405 27.1478 30.1405C26.6598 30.1405 26.2238 30.0405 25.8398 29.8405C25.4558 29.6325 25.1518 29.3245 24.9278 28.9165C24.7118 28.5005 24.6038 27.9765 24.6038 27.3445C24.6038 26.7365 24.7318 26.2125 24.9878 25.7725C25.2438 25.3245 25.5838 24.9805 26.0078 24.7405C26.4318 24.5005 26.8958 24.3805 27.3998 24.3805C27.8238 24.3805 28.2238 24.4685 28.5998 24.6445C28.9838 24.8125 29.3238 25.0765 29.6198 25.4365C29.9238 25.7885 30.1598 26.2445 30.3278 26.8045C30.5038 27.3565 30.5918 28.0165 30.5918 28.7845C30.5918 29.6245 30.4998 30.3485 30.3158 30.9565C30.1318 31.5565 29.8758 32.0525 29.5478 32.4445C29.2278 32.8365 28.8638 33.1285 28.4558 33.3205C28.0478 33.5045 27.6238 33.5965 27.1838 33.5965Z" fill="#BC8035"/>
<path d="M20.5729 18.5125C20.2769 18.5125 19.9869 18.4565 19.7029 18.3445C19.4189 18.2325 19.1689 18.0725 18.9529 17.8645L19.4629 17.2525C19.6189 17.4005 19.7969 17.5205 19.9969 17.6125C20.2009 17.7005 20.3989 17.7445 20.5909 17.7445C20.8229 17.7445 20.9989 17.6985 21.1189 17.6065C21.2389 17.5145 21.2989 17.3905 21.2989 17.2345C21.2989 17.1225 21.2689 17.0345 21.2089 16.9705C21.1529 16.9025 21.0749 16.8425 20.9749 16.7905C20.8749 16.7385 20.7589 16.6865 20.6269 16.6345L20.0389 16.3765C19.8909 16.3165 19.7469 16.2365 19.6069 16.1365C19.4709 16.0325 19.3569 15.9025 19.2649 15.7465C19.1769 15.5905 19.1329 15.4045 19.1329 15.1885C19.1329 14.9445 19.1989 14.7265 19.3309 14.5345C19.4629 14.3425 19.6449 14.1905 19.8769 14.0785C20.1089 13.9625 20.3729 13.9045 20.6689 13.9045C20.9329 13.9045 21.1869 13.9545 21.4309 14.0545C21.6749 14.1545 21.8869 14.2965 22.0669 14.4805L21.6169 15.0325C21.4769 14.9165 21.3309 14.8265 21.1789 14.7625C21.0269 14.6985 20.8569 14.6665 20.6689 14.6665C20.4769 14.6665 20.3229 14.7085 20.2069 14.7925C20.0949 14.8725 20.0389 14.9865 20.0389 15.1345C20.0389 15.2385 20.0709 15.3245 20.1349 15.3925C20.1989 15.4605 20.2829 15.5205 20.3869 15.5725C20.4909 15.6205 20.6049 15.6705 20.7289 15.7225L21.3109 15.9565C21.4909 16.0285 21.6469 16.1185 21.7789 16.2265C21.9149 16.3345 22.0189 16.4645 22.0909 16.6165C22.1669 16.7685 22.2049 16.9525 22.2049 17.1685C22.2049 17.4085 22.1389 17.6305 22.0069 17.8345C21.8789 18.0385 21.6929 18.2025 21.4489 18.3265C21.2089 18.4505 20.9169 18.5125 20.5729 18.5125ZM22.4211 18.4285L23.8431 13.9825H24.8931L26.3151 18.4285H25.3791L24.7491 16.1125C24.6811 15.8805 24.6151 15.6405 24.5511 15.3925C24.4911 15.1405 24.4271 14.8965 24.3591 14.6605H24.3351C24.2791 14.9005 24.2171 15.1445 24.1491 15.3925C24.0851 15.6405 24.0211 15.8805 23.9571 16.1125L23.3211 18.4285H22.4211ZM23.3031 17.2885V16.5985H25.4151V17.2885H23.3031ZM27.2246 18.4285V14.7265H25.9766V13.9825H29.3666V14.7265H28.1126V18.4285H27.2246Z" fill="#FEF9E9"/>
</g>
<defs>
<clipPath id="clip0_2658_32913">
<rect width="32" height="33.1429" fill="white" transform="translate(8.5 7.42847)"/>
</clipPath>
</defs>
</svg>
