<svg width="49" height="48" viewBox="0 0 49 48" fill="none" xmlns="http://www.w3.org/2000/svg">
<g clip-path="url(#clip0_2658_32916)">
<path d="M12.8024 40.5713C11.9282 40.5713 11.1799 40.2601 10.5575 39.6376C9.93501 39.0152 9.62378 38.2669 9.62378 37.3927V13.9977C9.62378 13.1235 9.93501 12.3752 10.5575 11.7527C11.1799 11.1303 11.9282 10.819 12.8024 10.819H14.7096V9.0178C14.7096 8.57985 14.865 8.20547 15.1758 7.89467C15.4866 7.58387 15.861 7.42847 16.299 7.42847C16.7369 7.42847 17.1113 7.58387 17.4221 7.89467C17.7329 8.20547 17.8883 8.57985 17.8883 9.0178V10.819H31.1115V9.0178C31.1115 8.57985 31.2669 8.20547 31.5777 7.89467C31.8885 7.58387 32.2629 7.42847 32.7009 7.42847C33.1388 7.42847 33.5132 7.58387 33.824 7.89467C34.1348 8.20547 34.2902 8.57985 34.2902 9.0178V10.819H36.1974C37.0716 10.819 37.8199 11.1303 38.4424 11.7527C39.0648 12.3752 39.3761 13.1235 39.3761 13.9977V37.3927C39.3761 38.2669 39.0648 39.0152 38.4424 39.6376C37.8199 40.2601 37.0716 40.5713 36.1974 40.5713H12.8024ZM12.8024 37.3927H36.1974V20.7365H12.8024V37.3927ZM24.502 27.3905C24.0344 27.3905 23.6417 27.2322 23.3238 26.9158C23.0059 26.5996 22.847 26.2076 22.847 25.7397C22.847 25.2721 23.0052 24.8793 23.3217 24.5615C23.6379 24.2436 24.0299 24.0847 24.4978 24.0847C24.9654 24.0847 25.3582 24.2429 25.676 24.5593C25.9939 24.8755 26.1528 25.2675 26.1528 25.7354C26.1528 26.2031 25.9946 26.5958 25.6781 26.9137C25.362 27.2315 24.9699 27.3905 24.502 27.3905ZM17.7209 27.3905C17.2533 27.3905 16.8605 27.2322 16.5427 26.9158C16.2248 26.5996 16.0659 26.2076 16.0659 25.7397C16.0659 25.2721 16.2241 24.8793 16.5405 24.5615C16.8567 24.2436 17.2488 24.0847 17.7167 24.0847C18.1843 24.0847 18.577 24.2429 18.8949 24.5593C19.2127 24.8755 19.3717 25.2675 19.3717 25.7354C19.3717 26.2031 19.2135 26.5958 18.897 26.9137C18.5808 27.2315 18.1888 27.3905 17.7209 27.3905ZM31.2832 27.3905C30.8156 27.3905 30.4228 27.2322 30.105 26.9158C29.7871 26.5996 29.6282 26.2076 29.6282 25.7397C29.6282 25.2721 29.7864 24.8793 30.1028 24.5615C30.419 24.2436 30.8111 24.0847 31.2789 24.0847C31.7466 24.0847 32.1393 24.2429 32.4572 24.5593C32.775 24.8755 32.934 25.2675 32.934 25.7354C32.934 26.2031 32.7757 26.5958 32.4593 26.9137C32.1431 27.2315 31.7511 27.3905 31.2832 27.3905ZM24.502 34.1716C24.0344 34.1716 23.6417 34.0134 23.3238 33.6969C23.0059 33.3808 22.847 32.9887 22.847 32.5208C22.847 32.0532 23.0052 31.6605 23.3217 31.3426C23.6379 31.0247 24.0299 30.8658 24.4978 30.8658C24.9654 30.8658 25.3582 31.024 25.676 31.3405C25.9939 31.6567 26.1528 32.0487 26.1528 32.5166C26.1528 32.9842 25.9946 33.377 25.6781 33.6948C25.362 34.0127 24.9699 34.1716 24.502 34.1716ZM17.7209 34.1716C17.2533 34.1716 16.8605 34.0134 16.5427 33.6969C16.2248 33.3808 16.0659 32.9887 16.0659 32.5208C16.0659 32.0532 16.2241 31.6605 16.5405 31.3426C16.8567 31.0247 17.2488 30.8658 17.7167 30.8658C18.1843 30.8658 18.577 31.024 18.8949 31.3405C19.2127 31.6567 19.3717 32.0487 19.3717 32.5166C19.3717 32.9842 19.2135 33.377 18.897 33.6948C18.5808 34.0127 18.1888 34.1716 17.7209 34.1716ZM31.2832 34.1716C30.8156 34.1716 30.4228 34.0134 30.105 33.6969C29.7871 33.3808 29.6282 32.9887 29.6282 32.5208C29.6282 32.0532 29.7864 31.6605 30.1028 31.3426C30.419 31.0247 30.8111 30.8658 31.2789 30.8658C31.7466 30.8658 32.1393 31.024 32.4572 31.3405C32.775 31.6567 32.934 32.0487 32.934 32.5166C32.934 32.9842 32.7757 33.377 32.4593 33.6948C32.1431 34.0127 31.7511 34.1716 31.2832 34.1716Z" fill="#BC8035"/>
</g>
<defs>
<clipPath id="clip0_2658_32916">
<rect width="32" height="33.1429" fill="white" transform="translate(8.5 7.42847)"/>
</clipPath>
</defs>
</svg>
