<svg width="48" height="48" viewBox="0 0 48 48" fill="none" xmlns="http://www.w3.org/2000/svg">
<path d="M11.4286 36.5714H13.8514L31.7714 18.6743L29.3257 16.2286L11.4286 34.1714V36.5714ZM9.71429 40C9.2419 40 8.8381 39.8324 8.50286 39.4971C8.16762 39.1619 8 38.7581 8 38.2857V34.1458C8 33.6905 8.08747 33.253 8.2624 32.8334C8.43733 32.4134 8.6851 32.0442 9.00571 31.7257L31.7714 8.98286C32.1061 8.66956 32.4754 8.42743 32.8795 8.25646C33.2837 8.08549 33.7138 8 34.1701 8C34.6263 8 35.0682 8.08762 35.4958 8.26286C35.9234 8.4381 36.3048 8.69333 36.64 9.02857L39.0171 11.4286C39.3524 11.7486 39.6 12.1181 39.76 12.5371C39.92 12.9562 40 13.3832 40 13.8181C40 14.2822 39.9217 14.7191 39.765 15.1287C39.6084 15.5383 39.3591 15.9125 39.0171 16.2514L16.2743 38.9943C15.957 39.3149 15.5893 39.5627 15.1712 39.7376C14.7528 39.9125 14.3128 40 13.8514 40H9.71429ZM30.5371 17.4629L29.3257 16.2286L31.7714 18.6743L30.5371 17.4629Z" fill="#BC8035"/>
</svg>
