<svg width="48" height="48" viewBox="0 0 48 48" fill="none" xmlns="http://www.w3.org/2000/svg">
<path d="M37.5475 16.2721C37.1363 16.2721 36.7848 16.1262 36.4929 15.8344C36.2011 15.5426 36.0552 15.1911 36.0552 14.7798V13.1284H34.4037C33.9925 13.1284 33.641 12.9825 33.3492 12.6906C33.0573 12.3988 32.9114 12.0473 32.9114 11.6361C32.9114 11.2249 33.0573 10.8733 33.3492 10.5815C33.641 10.2897 33.9925 10.1438 34.4037 10.1438H36.0552V8.4923C36.0552 8.08109 36.2011 7.72957 36.4929 7.43774C36.7848 7.14591 37.1363 7 37.5475 7C37.9587 7 38.3102 7.14591 38.6021 7.43774C38.8939 7.72957 39.0398 8.08109 39.0398 8.4923V10.1438H40.6913C41.1025 10.1438 41.454 10.2897 41.7458 10.5815C42.0377 10.8733 42.1836 11.2249 42.1836 11.6361C42.1836 12.0473 42.0377 12.3988 41.7458 12.6906C41.454 12.9825 41.1025 13.1284 40.6913 13.1284H39.0398V14.7798C39.0398 15.1911 38.8939 15.5426 38.6021 15.8344C38.3102 16.1262 37.9587 16.2721 37.5475 16.2721ZM23.5199 32.6277C25.4698 32.6277 27.1213 31.9512 28.4743 30.5982C29.8273 29.2452 30.5038 27.5937 30.5038 25.6438C30.5038 23.6938 29.8273 22.0424 28.4743 20.6893C27.1213 19.3363 25.4698 18.6598 23.5199 18.6598C21.57 18.6598 19.9185 19.3363 18.5655 20.6893C17.2125 22.0424 16.5359 23.6938 16.5359 25.6438C16.5359 27.5937 17.2125 29.2452 18.5655 30.5982C19.9185 31.9512 21.57 32.6277 23.5199 32.6277ZM23.5119 29.6431C22.3897 29.6431 21.4439 29.2585 20.6746 28.4891C19.9052 27.7197 19.5205 26.7739 19.5205 25.6517C19.5205 24.5298 19.9052 23.5814 20.6746 22.8064C21.4439 22.0318 22.3897 21.6444 23.5119 21.6444C24.6339 21.6444 25.5823 22.0318 26.3573 22.8064C27.1319 23.5814 27.5193 24.5298 27.5193 25.6517C27.5193 26.7739 27.1319 27.7197 26.3573 28.4891C25.5823 29.2585 24.6339 29.6431 23.5119 29.6431ZM10.9846 38C10.1638 38 9.46113 37.7078 8.87668 37.1233C8.29223 36.5389 8 35.8362 8 35.0154V16.292C8 15.4712 8.29223 14.7686 8.87668 14.1841C9.46113 13.5997 10.1638 13.3074 10.9846 13.3074H15.9987L17.9685 11.1386C18.2455 10.8325 18.5791 10.5901 18.9694 10.4116C19.3596 10.233 19.7689 10.1438 20.197 10.1438H28.4345C28.8457 10.1438 29.1973 10.2897 29.4891 10.5815C29.7809 10.8733 29.9268 11.2249 29.9268 11.6361V13.8745C29.9268 14.4964 30.1454 15.0248 30.5826 15.4599C31.0199 15.8953 31.5507 16.113 32.1752 16.113H33.0706V17.0083C33.0706 17.6329 33.2883 18.1637 33.7236 18.6009C34.1587 19.0381 34.6872 19.2567 35.309 19.2567H37.5475C37.9587 19.2567 38.3102 19.4027 38.6021 19.6945C38.8939 19.9863 39.0398 20.3378 39.0398 20.749V35.0154C39.0398 35.8362 38.7476 36.5389 38.1631 37.1233C37.5787 37.7078 36.876 38 36.0552 38H10.9846Z" fill="#BC8035"/>
</svg>
