<svg width="49" height="49" viewBox="0 0 49 49" fill="none" xmlns="http://www.w3.org/2000/svg">
<path d="M24.5205 32.5C24.9444 32.5 25.3068 32.3496 25.6077 32.0487C25.9085 31.7479 26.059 31.3855 26.059 30.9615V24.4385C26.059 24.0145 25.9085 23.6521 25.6077 23.3513C25.3068 23.0504 24.9444 22.9 24.5205 22.9C24.0966 22.9 23.7342 23.0504 23.4333 23.3513C23.1325 23.6521 22.9821 24.0145 22.9821 24.4385V30.9615C22.9821 31.3855 23.1325 31.7479 23.4333 32.0487C23.7342 32.3496 24.0966 32.5 24.5205 32.5ZM24.4955 19.741C24.9361 19.741 25.3068 19.5921 25.6077 19.2943C25.9085 18.9961 26.059 18.6269 26.059 18.1866C26.059 17.7459 25.9101 17.3752 25.6122 17.0744C25.3141 16.7735 24.9449 16.6231 24.5045 16.6231C24.0639 16.6231 23.6932 16.772 23.3923 17.0698C23.0915 17.368 22.941 17.7372 22.941 18.1775C22.941 18.6182 23.0899 18.9889 23.3878 19.2897C23.6859 19.5906 24.0551 19.741 24.4955 19.741ZM24.5 40.5C22.2871 40.5 20.2075 40.0794 18.2612 39.2381C16.3152 38.3965 14.6224 37.2546 13.1827 35.8124C11.7429 34.3699 10.6026 32.6765 9.76154 30.7322C8.92051 28.7881 8.5 26.7107 8.5 24.5C8.5 22.2871 8.92065 20.2075 9.76195 18.2612C10.6035 16.3152 11.7454 14.6224 13.1876 13.1827C14.6301 11.7429 16.3235 10.6026 18.2678 9.76154C20.2119 8.92051 22.2893 8.5 24.5 8.5C26.7129 8.5 28.7925 8.92065 30.7388 9.76195C32.6848 10.6035 34.3776 11.7454 35.8173 13.1876C37.2571 14.6301 38.3974 16.3235 39.2385 18.2678C40.0795 20.2119 40.5 22.2893 40.5 24.5C40.5 26.7129 40.0794 28.7925 39.2381 30.7388C38.3965 32.6848 37.2546 34.3776 35.8124 35.8173C34.3699 37.2571 32.6765 38.3974 30.7322 39.2385C28.7881 40.0795 26.7107 40.5 24.5 40.5ZM24.5 37.4231C28.0966 37.4231 31.1496 36.1684 33.659 33.659C36.1684 31.1496 37.4231 28.0966 37.4231 24.5C37.4231 20.9034 36.1684 17.8504 33.659 15.341C31.1496 12.8316 28.0966 11.5769 24.5 11.5769C20.9034 11.5769 17.8504 12.8316 15.341 15.341C12.8316 17.8504 11.5769 20.9034 11.5769 24.5C11.5769 28.0966 12.8316 31.1496 15.341 33.659C17.8504 36.1684 20.9034 37.4231 24.5 37.4231Z" fill="#BC8035"/>
</svg>
