<svg width="49" height="49" viewBox="0 0 49 49" fill="none" xmlns="http://www.w3.org/2000/svg">
<path d="M22.3411 40.5C21.7402 40.5 21.2178 40.2985 20.7739 39.8956C20.3301 39.4927 20.0671 38.9977 19.9852 38.4104L19.5755 35.3988C19.2204 35.2486 18.8618 35.0745 18.4999 34.8764C18.138 34.6784 17.8068 34.4701 17.5063 34.2516L14.6997 35.3988C14.1397 35.6447 13.5797 35.6686 13.0198 35.4706C12.4598 35.2725 12.0228 34.914 11.7086 34.395L9.51656 30.605C9.20244 30.086 9.11025 29.5329 9.24 28.9456C9.36974 28.3583 9.67363 27.8735 10.1516 27.491L12.61 25.6268C12.5827 25.4492 12.5691 25.2785 12.5691 25.1146V24.5205C12.5691 24.3566 12.5725 24.179 12.5793 23.9878C12.5861 23.7966 12.6032 23.5781 12.6305 23.3323L10.1926 21.5294C9.7146 21.147 9.4073 20.6656 9.27072 20.0851C9.13415 19.5047 9.22292 18.9481 9.53705 18.4155L11.7086 14.646C12.0228 14.127 12.4632 13.7685 13.03 13.5704C13.5968 13.3724 14.1602 13.3963 14.7201 13.6421L17.5678 14.8303C17.8409 14.6118 18.1448 14.407 18.4794 14.2157C18.814 14.0245 19.1794 13.847 19.5755 13.6831L19.9852 10.5896C20.0671 10.0023 20.3335 9.50726 20.7842 9.10435C21.2349 8.70145 21.7607 8.5 22.3616 8.5H26.6843C27.2852 8.5 27.8076 8.70145 28.2515 9.10435C28.6954 9.50726 28.9583 10.0023 29.0403 10.5896L29.45 13.6216C29.8324 13.7719 30.1841 13.946 30.505 14.144C30.826 14.3421 31.1367 14.5708 31.4372 14.8303L34.3258 13.6421C34.8858 13.3963 35.4457 13.3724 36.0057 13.5704C36.5656 13.7685 37.0027 14.127 37.3168 14.646L39.4884 18.4155C39.8025 18.9345 39.8913 19.4876 39.7547 20.0749C39.6181 20.6622 39.3108 21.147 38.8328 21.5294L36.2925 23.4142C36.3198 23.6054 36.3335 23.7796 36.3335 23.9366V25.1248C36.3335 25.2956 36.313 25.4697 36.272 25.6472L38.7714 27.491C39.2494 27.8735 39.5567 28.3583 39.6933 28.9456C39.8298 29.5329 39.7411 30.086 39.4269 30.605L37.2349 34.395C36.9207 34.914 36.4803 35.2725 35.9135 35.4706C35.3467 35.6686 34.7833 35.6447 34.2234 35.3988L31.4372 34.2106C31.1777 34.4155 30.8943 34.6067 30.587 34.7843C30.2797 34.9618 29.9007 35.1598 29.45 35.3784L29.0403 38.4104C28.9583 38.9977 28.6954 39.4927 28.2515 39.8956C27.8076 40.2985 27.2852 40.5 26.6843 40.5H22.3411ZM24.4922 30.0519C26.0219 30.0519 27.3262 29.5124 28.4052 28.4334C29.4841 27.3545 30.0236 26.0501 30.0236 24.5205C30.0236 22.9908 29.4841 21.6865 28.4052 20.6076C27.3262 19.5286 26.0219 18.9891 24.4922 18.9891C22.9489 18.9891 21.6412 19.5286 20.5691 20.6076C19.4969 21.6865 18.9609 22.9908 18.9609 24.5205C18.9609 26.0501 19.4969 27.3545 20.5691 28.4334C21.6412 29.5124 22.9489 30.0519 24.4922 30.0519Z" fill="#BC8035"/>
</svg>
