<svg width="48" height="48" viewBox="0 0 48 48" fill="none" xmlns="http://www.w3.org/2000/svg">
<path d="M23.7849 25.168C23.3129 25.168 22.8929 25.112 22.5249 25C22.1569 24.888 21.8289 24.74 21.5409 24.556C21.2529 24.372 20.9969 24.172 20.7729 23.956L21.5889 22.828C21.7569 22.996 21.9369 23.148 22.1289 23.284C22.3289 23.42 22.5449 23.528 22.7769 23.608C23.0169 23.688 23.2729 23.728 23.5449 23.728C23.8489 23.728 24.1169 23.664 24.3489 23.536C24.5889 23.408 24.7769 23.224 24.9129 22.984C25.0489 22.736 25.1169 22.44 25.1169 22.096C25.1169 21.584 24.9769 21.188 24.6969 20.908C24.4249 20.628 24.0649 20.488 23.6169 20.488C23.3609 20.488 23.1409 20.524 22.9569 20.596C22.7729 20.66 22.5489 20.776 22.2849 20.944L21.4809 20.428L21.7209 16.108H26.4729V17.596H23.2449L23.0769 19.48C23.2529 19.4 23.4249 19.34 23.5929 19.3C23.7609 19.26 23.9449 19.24 24.1449 19.24C24.6409 19.24 25.0969 19.34 25.5129 19.54C25.9289 19.732 26.2609 20.036 26.5089 20.452C26.7569 20.868 26.8809 21.4 26.8809 22.048C26.8809 22.704 26.7329 23.268 26.4369 23.74C26.1489 24.204 25.7689 24.56 25.2969 24.808C24.8329 25.048 24.3289 25.168 23.7849 25.168Z" fill="#BC8035"/>
<path d="M24 37.4755L16.6908 39.9052C16.1996 40.0778 15.7482 40.0147 15.3366 39.716C14.925 39.4173 14.7192 39.0156 14.7192 38.5111V28.5731C13.7367 27.4578 12.9732 26.2031 12.4289 24.809C11.8845 23.4149 11.6123 21.9411 11.6123 20.3877C11.6123 16.9489 12.8172 14.0245 15.227 11.6147C17.6368 9.20491 20.5612 8 24 8C27.4388 8 30.3631 9.20491 32.7729 11.6147C35.1827 14.0245 36.3876 16.9489 36.3876 20.3877C36.3876 21.9411 36.1154 23.4149 35.5711 24.809C35.0267 26.2031 34.2633 27.4578 33.2807 28.5731V38.5111C33.2807 39.0156 33.0749 39.4173 32.6634 39.716C32.2518 40.0147 31.8003 40.0778 31.3091 39.9052L24 37.4755ZM24 29.7879C26.6156 29.7879 28.8362 28.8751 30.6618 27.0495C32.4874 25.2239 33.4002 23.0033 33.4002 20.3877C33.4002 17.772 32.4874 15.5514 30.6618 13.7258C28.8362 11.9002 26.6156 10.9874 24 10.9874C21.3843 10.9874 19.1637 11.9002 17.3381 13.7258C15.5125 15.5514 14.5997 17.772 14.5997 20.3877C14.5997 23.0033 15.5125 25.2239 17.3381 27.0495C19.1637 28.8751 21.3843 29.7879 24 29.7879Z" fill="#BC8035"/>
</svg>
