<svg width="48" height="48" viewBox="0 0 48 48" fill="none" xmlns="http://www.w3.org/2000/svg">
<path d="M28.8077 39C27.9262 39 27.1717 38.6862 26.544 38.0585C25.9164 37.4309 25.6026 36.6764 25.6026 35.7949V28.8077C25.6026 27.9262 25.9164 27.1717 26.544 26.544C27.1717 25.9164 27.9262 25.6026 28.8077 25.6026H35.7949C36.6764 25.6026 37.4309 25.9164 38.0585 26.544C38.6862 27.1717 39 27.9262 39 28.8077V35.7949C39 36.6764 38.6862 37.4309 38.0585 38.0585C37.4309 38.6862 36.6764 39 35.7949 39H28.8077ZM28.8077 22.3974C27.9262 22.3974 27.1717 22.0836 26.544 21.456C25.9164 20.8283 25.6026 20.0738 25.6026 19.1923V12.2051C25.6026 11.3236 25.9164 10.5691 26.544 9.94145C27.1717 9.31382 27.9262 9 28.8077 9H35.7949C36.6764 9 37.4309 9.31382 38.0585 9.94145C38.6862 10.5691 39 11.3236 39 12.2051V19.1923C39 20.0738 38.6862 20.8283 38.0585 21.456C37.4309 22.0836 36.6764 22.3974 35.7949 22.3974H28.8077ZM12.2051 22.3974C11.3236 22.3974 10.5691 22.0836 9.94145 21.456C9.31382 20.8283 9 20.0738 9 19.1923V12.2051C9 11.3236 9.31382 10.5691 9.94145 9.94145C10.5691 9.31382 11.3236 9 12.2051 9H19.1923C20.0738 9 20.8283 9.31382 21.456 9.94145C22.0836 10.5691 22.3974 11.3236 22.3974 12.2051V19.1923C22.3974 20.0738 22.0836 20.8283 21.456 21.456C20.8283 22.0836 20.0738 22.3974 19.1923 22.3974H12.2051ZM12.2051 39C11.3236 39 10.5691 38.6862 9.94145 38.0585C9.31382 37.4309 9 36.6764 9 35.7949V28.8077C9 27.9262 9.31382 27.1717 9.94145 26.544C10.5691 25.9164 11.3236 25.6026 12.2051 25.6026H19.1923C20.0738 25.6026 20.8283 25.9164 21.456 26.544C22.0836 27.1717 22.3974 27.9262 22.3974 28.8077V35.7949C22.3974 36.6764 22.0836 37.4309 21.456 38.0585C20.8283 38.6862 20.0738 39 19.1923 39H12.2051Z" fill="#BC8035"/>
</svg>
