<svg width="48" height="49" viewBox="0 0 48 49" fill="none" xmlns="http://www.w3.org/2000/svg">
<g clip-path="url(#clip0_2658_32970)">
<path d="M35.2649 31.1099C35.2649 31.1099 35.2349 31.1099 35.2249 31.1099C34.6949 31.1099 34.2449 30.6899 34.2249 30.1499C34.2049 29.5999 34.6349 29.1299 35.1849 29.1099C36.9149 29.0299 38.4449 29.3899 39.6449 29.8399C39.8749 28.9299 39.9949 27.9899 39.9949 27.0499C38.8949 27.0199 37.4849 27.1499 36.0349 27.7399C35.9149 27.7899 35.7849 27.8199 35.6549 27.8199C35.2649 27.8199 34.8849 27.5899 34.7349 27.1999C34.5249 26.6899 34.7649 26.1099 35.2749 25.8899C36.9249 25.2099 38.5249 25.0299 39.8249 25.0399C39.6349 23.8699 39.2649 22.7099 38.7249 21.5799C39.3349 19.0299 39.5049 16.3299 39.2149 13.7499C38.8849 10.8899 38.0049 9.34989 36.6049 9.15989C36.4849 9.15989 36.3649 9.13989 36.2249 9.13989C34.5049 9.13989 32.3549 10.5299 30.8449 11.6999C30.1849 12.2199 29.5049 12.8799 28.9049 13.4699L28.8049 13.5599C27.1749 13.0999 25.4849 12.8599 23.8049 12.8599C23.2449 12.8599 22.6849 12.8899 22.1349 12.9399C21.1549 13.0299 20.1549 13.2199 19.1449 13.4999C18.5849 12.9699 17.8849 12.2999 17.1049 11.6999C15.6049 10.5299 13.4449 9.13989 11.7249 9.13989C11.5949 9.13989 11.4649 9.14989 11.3449 9.15989C9.24488 9.43989 8.86488 12.6899 8.74488 13.7499C8.44488 16.3199 8.61488 19.0399 9.23488 21.6099C8.70488 22.7199 8.35488 23.8699 8.16488 25.0499C9.48488 25.0199 11.1449 25.1799 12.8749 25.8899C13.3849 26.0999 13.6249 26.6799 13.4149 27.1999C13.2549 27.5899 12.8849 27.8199 12.4849 27.8199C12.3549 27.8199 12.2249 27.7999 12.1049 27.7399C10.6049 27.1199 9.12488 27.0099 8.00488 27.0499C8.00488 27.4899 8.02488 27.9299 8.07488 28.3599C8.13488 28.8799 8.24488 29.3799 8.36488 29.8899C9.57488 29.4199 11.1549 29.0399 12.9549 29.1099C13.5049 29.1299 13.9349 29.5999 13.9149 30.1499C13.8949 30.6999 13.4249 31.1699 12.8749 31.1099C11.3649 31.0499 10.0349 31.3999 9.01488 31.7899C9.76488 33.4799 10.9149 34.9999 12.3849 36.2399C15.1149 38.5399 19.3349 39.8499 23.9749 39.8499C29.1849 39.8499 33.9049 38.1599 36.5949 35.3199C37.6249 34.2399 38.4149 33.0299 38.9849 31.7499C37.9849 31.3799 36.6949 31.0599 35.2649 31.1099ZM12.6249 12.3399C11.5049 12.3399 11.2449 13.4699 11.0849 14.5299C10.9049 15.8399 10.8949 17.2399 11.0649 18.6999C10.8449 18.9999 10.6549 19.2699 10.4649 19.5199C10.4649 19.4299 10.4349 19.3399 10.4249 19.2399C10.3949 19.0399 10.3649 18.8399 10.3449 18.6499C10.1649 16.9299 10.2149 15.0199 10.4849 13.2699C10.8149 11.1099 11.3549 10.7799 11.5649 10.7399C11.6249 10.7299 11.6949 10.7199 11.7549 10.7199C12.4349 10.7199 13.4449 11.2799 13.8649 11.5199C14.9749 12.1399 16.0949 12.9699 17.3449 14.1199L16.4649 14.5299L16.4449 14.4999C15.6849 13.7099 14.7549 13.0399 13.9649 12.6899C13.4349 12.4499 12.9949 12.3399 12.6349 12.3399H12.6249ZM21.0249 28.5499C20.3649 29.3399 19.4149 29.7899 18.4149 29.7899C17.3249 29.7899 16.3549 29.2699 15.7449 28.3699C15.5249 28.0399 15.2549 27.3499 15.4649 26.8799C15.5349 26.7199 15.6849 26.5099 16.0249 26.4599C16.0949 26.4399 16.1649 26.4399 16.2349 26.4399C16.7949 26.4399 16.9349 26.8799 17.0249 27.1699C17.0549 27.2599 17.0849 27.3599 17.1149 27.4299C17.3549 27.8999 17.8849 28.1899 18.4849 28.1899C19.0849 28.1899 19.5549 27.9199 19.7949 27.4899C19.8349 27.4099 19.8749 27.3099 19.9049 27.1999C20.0149 26.8999 20.1649 26.4399 20.7149 26.4399C20.7849 26.4399 20.8549 26.4399 20.9349 26.4599C21.2949 26.5399 21.4449 26.7599 21.5149 26.9299C21.7049 27.4699 21.2649 28.2599 21.0249 28.5499ZM23.9949 35.6999C23.1849 35.6999 22.5349 34.8799 22.5349 33.8599C22.5349 32.8399 23.1849 32.0199 23.9949 32.0199C24.8049 32.0199 25.4549 32.8399 25.4549 33.8599C25.4549 34.8799 24.7949 35.6999 23.9949 35.6999ZM25.2449 30.4799C25.0549 30.6199 24.6549 30.8299 24.6549 30.8299C23.8349 30.9799 23.4549 30.7699 23.4549 30.7699C23.4549 30.7699 22.9649 30.5399 22.7949 30.3699C22.2249 29.8099 22.0749 28.6599 23.0349 28.4099C23.5449 28.2799 25.0149 28.2699 25.4549 28.5499C26.1549 28.9999 25.7949 30.0599 25.2449 30.4799ZM32.6149 27.8399C32.2149 29.0099 31.0549 29.7699 29.6649 29.7699C28.2749 29.7699 27.0849 29.0199 26.6549 27.8499C26.5349 27.5599 26.4749 27.1199 26.6549 26.8099C26.7549 26.6299 26.9249 26.5099 27.1449 26.4599C27.2249 26.4399 27.3149 26.4299 27.3849 26.4299C27.9249 26.4299 28.1049 26.8799 28.2249 27.2199C28.2949 27.3799 28.3549 27.5499 28.4549 27.6699C28.7349 27.9999 29.1649 28.1899 29.6249 28.1899C30.1949 28.1899 30.6949 27.9199 30.9649 27.4599C31.0049 27.3799 31.0449 27.2799 31.0849 27.1699C31.1949 26.8799 31.3549 26.4299 31.8849 26.4299C31.9549 26.4299 32.0349 26.4399 32.1149 26.4599C32.3249 26.5099 32.4949 26.6299 32.6049 26.8099C32.7749 27.1299 32.7249 27.5499 32.6249 27.8399H32.6149ZM31.5249 14.4899C31.5249 14.4899 31.4949 14.5099 31.4949 14.5299L30.6049 14.1199C31.8649 12.9699 32.9749 12.1399 34.0849 11.5199C34.5449 11.2599 35.5149 10.7199 36.1949 10.7199C36.2649 10.7199 36.3249 10.7199 36.3849 10.7399C36.8349 10.8299 37.2449 11.7699 37.4649 13.2699C37.7349 15.0199 37.7849 16.9299 37.6149 18.6499C37.5949 18.8399 37.5649 19.0299 37.5349 19.2299C37.5149 19.3099 37.5049 19.3999 37.4949 19.4799C37.4449 19.4299 37.4049 19.3699 37.3649 19.3099C37.2549 19.1699 37.1549 19.0399 37.0549 18.9299L36.8849 18.6999C37.0649 17.2299 37.0549 15.8299 36.8649 14.5299C36.7149 13.4699 36.4549 12.3399 35.3249 12.3399C34.9649 12.3399 34.5349 12.4499 33.9949 12.6899C33.2149 13.0399 32.2849 13.7099 31.5249 14.4899Z" fill="#BC8035"/>
</g>
<defs>
<clipPath id="clip0_2658_32970">
<rect width="31.99" height="30.72" fill="white" transform="translate(8.00488 9.13989)"/>
</clipPath>
</defs>
</svg>
