<svg width="48" height="48" viewBox="0 0 48 48" fill="none" xmlns="http://www.w3.org/2000/svg">
<path d="M24 38.1436C23.6308 38.1436 23.265 38.0787 22.9026 37.9488C22.5402 37.8188 22.2154 37.6171 21.9282 37.3436L19.3436 34.9847C16.3897 32.2906 13.7607 29.6513 11.4564 27.0667C9.15214 24.4821 8 21.6582 8 18.5949C8 16.106 8.83419 14.0274 10.5026 12.359C12.1709 10.6906 14.2496 9.85645 16.7385 9.85645C18.147 9.85645 19.4838 10.1607 20.7487 10.7693C22.0137 11.3778 23.0974 12.2359 24 13.3436C24.9299 12.2359 26.0205 11.3778 27.2718 10.7693C28.5231 10.1607 29.853 9.85645 31.2615 9.85645C33.7504 9.85645 35.8291 10.6906 37.4974 12.359C39.1658 14.0274 40 16.106 40 18.5949C40 21.6582 38.8513 24.4855 36.5538 27.077C34.2564 29.6684 31.6239 32.3043 28.6564 34.9847L26.0718 37.3436C25.7846 37.6171 25.4598 37.8188 25.0974 37.9488C24.735 38.0787 24.3692 38.1436 24 38.1436Z" fill="#EE6666"/>
</svg>
