<svg width="48" height="49" viewBox="0 0 48 49" fill="none" xmlns="http://www.w3.org/2000/svg">
<path d="M24 29.0268C22.465 29.0268 21.1577 28.487 20.078 27.4073C18.9984 26.3276 18.4585 25.0203 18.4585 23.4854V14.0415C18.4585 12.5065 18.9984 11.1992 20.078 10.1195C21.1577 9.03984 22.465 8.5 24 8.5C25.535 8.5 26.8423 9.03984 27.9219 10.1195C29.0016 11.1992 29.5415 12.5065 29.5415 14.0415V23.4854C29.5415 25.0203 29.0016 26.3276 27.9219 27.4073C26.8423 28.487 25.535 29.0268 24 29.0268ZM21.8927 38.4317V35.8171C19.213 35.4528 16.9366 34.3276 15.0634 32.4415C13.1902 30.5553 12.0325 28.2724 11.5902 25.5927C11.4862 25.0463 11.6293 24.5585 12.0195 24.1293C12.4097 23.7 12.9041 23.4854 13.5024 23.4854C14.0748 23.4854 14.5756 23.687 15.0049 24.0902C15.4341 24.4935 15.7138 24.9813 15.8439 25.5537C16.3122 27.4268 17.3073 28.9423 18.8293 30.1C20.3512 31.2577 22.0748 31.8366 24 31.8366C25.9252 31.8366 27.6488 31.2577 29.1707 30.1C30.6927 28.9423 31.6878 27.4268 32.1561 25.5537C32.3122 24.9813 32.5984 24.4935 33.0146 24.0902C33.4309 23.687 33.9252 23.4854 34.4976 23.4854C35.0959 23.4854 35.5902 23.6935 35.9805 24.1098C36.3707 24.526 36.5138 25.0203 36.4097 25.5927C35.9675 28.2463 34.8032 30.5228 32.9171 32.422C31.0309 34.3211 28.735 35.4528 26.0293 35.8171V38.4317C26.0293 39.0041 25.8276 39.4919 25.4244 39.8951C25.0211 40.2984 24.5333 40.5 23.961 40.5C23.3886 40.5 22.9008 40.2984 22.4976 39.8951C22.0943 39.4919 21.8927 39.0041 21.8927 38.4317Z" fill="#BC8035"/>
</svg>
