<svg width="393" height="58" viewBox="0 0 393 58" fill="none" xmlns="http://www.w3.org/2000/svg">
<path d="M29.7666 22.7231C30.4085 22.7231 31.0173 22.8421 31.5928 23.0801C32.1683 23.3125 32.6774 23.6777 33.1201 24.1758C33.5684 24.6683 33.9198 25.3019 34.1743 26.0767C34.4289 26.8459 34.5562 27.7728 34.5562 28.8574V28.874C34.5562 30.2188 34.3625 31.3698 33.9751 32.3271C33.5877 33.2845 33.0316 34.0205 32.3066 34.5352C31.5872 35.0443 30.7267 35.2988 29.7251 35.2988C28.9891 35.2988 28.325 35.166 27.7329 34.9004C27.1463 34.6292 26.6593 34.2585 26.272 33.7881C25.8901 33.3122 25.6328 32.7699 25.5 32.1611L25.4834 32.0698H27.5835L27.6167 32.1528C27.7218 32.4295 27.8713 32.673 28.0649 32.8833C28.2642 33.0936 28.5021 33.2568 28.7788 33.373C29.061 33.4837 29.3765 33.5391 29.7251 33.5391C30.356 33.5391 30.8706 33.3537 31.269 32.9829C31.673 32.6066 31.9746 32.1058 32.1738 31.4805C32.3786 30.8496 32.4948 30.1523 32.5225 29.3887C32.528 29.3057 32.5308 29.2254 32.5308 29.1479C32.5308 29.0649 32.5308 28.9847 32.5308 28.9072L32.1572 26.9067C32.1572 26.453 32.0521 26.0407 31.8418 25.6699C31.6315 25.2992 31.3465 25.0059 30.9868 24.79C30.6326 24.5742 30.2314 24.4663 29.7832 24.4663C29.3516 24.4663 28.9559 24.5715 28.5962 24.7817C28.2365 24.992 27.9487 25.2798 27.7329 25.645C27.5171 26.0047 27.4092 26.4087 27.4092 26.8569V26.8735C27.4092 27.3384 27.5116 27.7507 27.7163 28.1104C27.9211 28.4645 28.2005 28.744 28.5547 28.9487C28.9089 29.1535 29.3128 29.2559 29.7666 29.2559C30.2204 29.2559 30.6271 29.1562 30.9868 28.957C31.3465 28.7578 31.6315 28.4811 31.8418 28.127C32.0521 27.7728 32.1572 27.3716 32.1572 26.9233V26.9067H32.6553V29.1147H32.3647C32.2209 29.4302 32.0078 29.7235 31.7256 29.9946C31.4434 30.2658 31.0947 30.4844 30.6797 30.6504C30.2702 30.8164 29.7887 30.8994 29.2354 30.8994C28.4717 30.8994 27.7965 30.7279 27.21 30.3848C26.6234 30.0417 26.1613 29.5713 25.8237 28.9736C25.4917 28.376 25.3257 27.7008 25.3257 26.9482V26.9316C25.3257 26.1182 25.5138 25.396 25.8901 24.7651C26.272 24.1287 26.7977 23.6307 27.4673 23.271C28.1424 22.9058 28.9089 22.7231 29.7666 22.7231ZM38.3247 33.3896C37.9484 33.3896 37.633 33.2651 37.3784 33.0161C37.1294 32.7616 37.0049 32.4517 37.0049 32.0864C37.0049 31.7157 37.1294 31.4058 37.3784 31.1567C37.633 30.9022 37.9484 30.7749 38.3247 30.7749C38.7065 30.7749 39.022 30.9022 39.271 31.1567C39.52 31.4058 39.6445 31.7157 39.6445 32.0864C39.6445 32.4517 39.52 32.7616 39.271 33.0161C39.022 33.2651 38.7065 33.3896 38.3247 33.3896ZM38.3247 27.2305C37.9484 27.2305 37.633 27.106 37.3784 26.8569C37.1294 26.6024 37.0049 26.2925 37.0049 25.9272C37.0049 25.5565 37.1294 25.2466 37.3784 24.9976C37.633 24.743 37.9484 24.6157 38.3247 24.6157C38.7065 24.6157 39.022 24.743 39.271 24.9976C39.52 25.2466 39.6445 25.5565 39.6445 25.9272C39.6445 26.2925 39.52 26.6024 39.271 26.8569C39.022 27.106 38.7065 27.2305 38.3247 27.2305ZM47.9038 35V32.7007H42.0435V30.9492C42.3589 30.4124 42.6743 29.8729 42.9897 29.3306C43.3107 28.7882 43.6344 28.2487 43.9609 27.7119C44.293 27.1696 44.6222 26.6356 44.9487 26.1099C45.2808 25.5786 45.61 25.0557 45.9365 24.541C46.2686 24.0208 46.6006 23.5145 46.9326 23.022H49.9458V30.9326H51.5645V32.7007H49.9458V35H47.9038ZM44.0356 30.9824H47.937V24.7319H47.8125C47.569 25.1082 47.3172 25.4956 47.0571 25.894C46.8026 26.2925 46.5452 26.6992 46.2852 27.1143C46.0251 27.5293 45.7677 27.9471 45.5132 28.3677C45.2586 28.7827 45.0068 29.2005 44.7578 29.6211C44.5088 30.0361 44.2681 30.4484 44.0356 30.8579V30.9824ZM56.52 35V25.1304H56.3706L53.3906 27.2305V25.2217L56.52 23.022H58.6533V35H56.52Z" fill="#171717"/>
<path fill-rule="evenodd" clip-rule="evenodd" d="M310.53 24.0329C310.53 23.3999 310.053 22.8867 309.463 22.8867H308.397C307.808 22.8867 307.33 23.3999 307.33 24.0329V33.9669C307.33 34.5999 307.808 35.1131 308.397 35.1131H309.463C310.053 35.1131 310.53 34.5999 310.53 33.9669V24.0329ZM303.096 25.332H304.163C304.752 25.332 305.229 25.8575 305.229 26.5057V33.9394C305.229 34.5876 304.752 35.1131 304.163 35.1131H303.096C302.507 35.1131 302.029 34.5876 302.029 33.9394V26.5057C302.029 25.8575 302.507 25.332 303.096 25.332ZM298.764 27.981H297.698C297.108 27.981 296.631 28.5132 296.631 29.1697V33.9244C296.631 34.5809 297.108 35.1131 297.698 35.1131H298.764C299.353 35.1131 299.831 34.5809 299.831 33.9244V29.1697C299.831 28.5132 299.353 27.981 298.764 27.981ZM293.463 30.4263H292.397C291.808 30.4263 291.33 30.9509 291.33 31.598V33.9414C291.33 34.5885 291.808 35.1131 292.397 35.1131H293.463C294.053 35.1131 294.53 34.5885 294.53 33.9414V31.598C294.53 30.9509 294.053 30.4263 293.463 30.4263Z" fill="#171717"/>
<path fill-rule="evenodd" clip-rule="evenodd" d="M326.102 25.3022C328.589 25.3023 330.981 26.2244 332.783 27.8779C332.919 28.0055 333.136 28.0039 333.27 27.8743L334.567 26.6108C334.635 26.545 334.672 26.456 334.672 26.3633C334.671 26.2706 334.633 26.182 334.564 26.117C329.833 21.7423 322.369 21.7423 317.638 26.117C317.57 26.1819 317.531 26.2705 317.53 26.3632C317.53 26.4559 317.567 26.545 317.635 26.6108L318.933 27.8743C319.066 28.0041 319.284 28.0057 319.419 27.8779C321.222 26.2243 323.614 25.3022 326.102 25.3022ZM326.098 29.5225C327.456 29.5224 328.764 30.0342 329.771 30.9583C329.907 31.0894 330.121 31.0866 330.254 30.9519L331.541 29.6326C331.609 29.5634 331.646 29.4695 331.645 29.3719C331.644 29.2744 331.605 29.1813 331.536 29.1135C328.472 26.2227 323.727 26.2227 320.663 29.1135C320.594 29.1813 320.555 29.2744 320.554 29.372C320.553 29.4696 320.591 29.5635 320.658 29.6326L321.945 30.9519C322.078 31.0866 322.292 31.0894 322.429 30.9583C323.434 30.0348 324.742 29.5231 326.098 29.5225ZM328.623 32.316C328.625 32.4214 328.588 32.523 328.52 32.5968L326.344 35.0515C326.28 35.1236 326.193 35.1642 326.102 35.1642C326.011 35.1642 325.924 35.1236 325.86 35.0515L323.683 32.5968C323.616 32.5229 323.579 32.4213 323.581 32.316C323.583 32.2106 323.624 32.1108 323.694 32.0402C325.084 30.7263 327.12 30.7263 328.51 32.0402C328.58 32.1109 328.621 32.2107 328.623 32.316Z" fill="#171717"/>
<rect opacity="0.35" x="342.172" y="23" width="24" height="12" rx="3.8" stroke="#171717"/>
<path opacity="0.4" d="M367.672 27.2812V31.3567C368.477 31.0116 369 30.2086 369 29.319C369 28.4294 368.477 27.6264 367.672 27.2812Z" fill="#171717"/>
<rect x="343.672" y="24.5" width="21" height="9" rx="2.5" fill="#171717"/>
</svg>
