<svg width="48" height="48" viewBox="0 0 48 48" fill="none" xmlns="http://www.w3.org/2000/svg">
<path d="M11.0871 40C10.6298 40 10.2459 39.8492 9.93544 39.5475C9.62497 39.2462 9.46973 38.8726 9.46973 38.4269V30.1889C9.46973 29.335 9.77372 28.6041 10.3817 27.9961C10.9897 27.3881 11.7206 27.0841 12.5745 27.0841H12.7401V20.3777C12.7401 19.5239 13.0441 18.7929 13.6521 18.1849C14.2601 17.577 14.991 17.273 15.8449 17.273H22.427V14.934C21.9441 14.6028 21.5542 14.213 21.2576 13.7646C20.9609 13.3161 20.8125 12.771 20.8125 12.1294C20.8125 11.7284 20.8919 11.334 21.0506 10.9462C21.2093 10.5585 21.4473 10.2043 21.7647 9.88357L23.462 8.22768C23.5034 8.18629 23.6801 8.11039 23.9923 8C24.0441 8 24.2262 8.07589 24.5383 8.22768L26.2285 9.88605C26.5506 10.2018 26.791 10.5538 26.9497 10.9421C27.1084 11.3307 27.1877 11.7259 27.1877 12.1277C27.1877 12.7705 27.0394 13.3161 26.7427 13.7646C26.446 14.213 26.0562 14.6028 25.5732 14.934V17.273H32.1554C33.0093 17.273 33.7402 17.577 34.3482 18.1849C34.9562 18.7929 35.2602 19.5239 35.2602 20.3777V27.0841H35.4257C36.2796 27.0841 37.0106 27.3881 37.6185 27.9961C38.2265 28.6041 38.5305 29.335 38.5305 30.1889V38.4269C38.5305 38.8726 38.3758 39.2462 38.0665 39.5475C37.7571 39.8492 37.3736 40 36.916 40H11.0871ZM15.8449 27.0841H32.1554V20.3777H15.8449V27.0841ZM12.5745 36.8952H35.4257V30.1889H12.5745V36.8952Z" fill="#BC8035"/>
</svg>
