<svg width="49" height="40" viewBox="0 0 49 40" fill="none" xmlns="http://www.w3.org/2000/svg">
<g clip-path="url(#clip0_2658_73664)">
<path d="M2.11007 8.54427C1.69932 8.64828 1.13753 8.76553 0.727353 8.91408C-0.0980921 9.21296 0.0871628 10.4166 0.743175 10.4789C1.06073 10.5091 1.98616 10.256 2.35571 10.1705C7.34402 9.01173 12.0555 8.46516 17.0172 10.2069C22.5427 12.1464 26.8702 17.2311 26.1576 23.4653L25.7275 22.7638C25.176 21.6388 24.9238 20.4131 24.5885 19.2114C23.9911 18.646 23.1397 19.0927 23.2246 19.9366C23.402 21.6925 24.7408 24.573 25.8701 25.9264C26.0837 26.1818 26.1705 26.1753 26.4783 26.2592L26.8047 26.1899C27.0645 26.0251 27.3998 25.9588 27.6858 25.831C29.7412 24.9129 31.1895 22.9623 32.2971 21.0465C32.722 20.3107 33.141 19.5245 33.405 18.7168L33.3341 18.3829C32.9881 17.9483 32.5761 17.8279 32.1021 18.1651C30.8811 20.3005 29.8611 22.7867 27.6482 24.0573C28.3049 19.4652 26.4763 15.0033 23.0647 11.9866C18.7128 8.13614 12.7914 7.08821 7.2116 7.67059L4.46022 8.04501C3.6837 8.233 2.88358 8.34854 2.11007 8.54427Z" fill="white"/>
</g>
<defs>
<clipPath id="clip0_2658_73664">
<rect width="31.5904" height="43.229" fill="white" transform="matrix(0.207798 0.978172 0.978172 -0.207798 0 8.98291)"/>
</clipPath>
</defs>
</svg>
