<svg width="50" height="43" viewBox="0 0 50 43" fill="none" xmlns="http://www.w3.org/2000/svg">
<g clip-path="url(#clip0_2658_73676)">
<path d="M47.8731 11.4322C48.2705 11.5656 48.8159 11.7233 49.2092 11.9011C50.0008 12.2589 49.7244 13.4448 49.072 13.4593C48.7562 13.4664 47.8624 13.1469 47.5043 13.0349C42.6705 11.5179 38.0623 10.6311 33.0294 12.0064C27.4246 13.5379 22.7578 18.2906 22.9769 24.5548L23.4559 23.887C24.0877 22.8059 24.4318 21.6028 24.8562 20.4296C25.4898 19.9096 26.2955 20.4167 26.1462 21.2514C25.8346 22.9883 24.2892 25.7616 23.0694 27.0282C22.8387 27.2673 22.7535 27.2544 22.4432 27.3157L22.1263 27.2229C21.8828 27.0399 21.5569 26.9494 21.2845 26.8013C19.3271 25.7371 18.0491 23.6882 17.1046 21.6986C16.7424 20.9345 16.3899 20.1206 16.1921 19.2965L16.288 18.969C16.6633 18.561 17.0793 18.4709 17.521 18.8414C18.5603 21.058 19.3739 23.6096 21.4595 25.0365C21.1681 20.4127 23.3198 16.0992 26.9217 13.3408C31.5166 9.81974 37.4429 9.20549 42.9054 10.1911L45.5921 10.764C46.344 11.0077 47.1248 11.181 47.8731 11.4322Z" fill="white"/>
</g>
<defs>
<clipPath id="clip0_2658_73676">
<rect width="31.5904" height="42.7657" fill="white" transform="translate(49.9219 12.0225) rotate(106.327)"/>
</clipPath>
</defs>
</svg>
